<svg width="554" height="554" viewBox="0 0 554 554" fill="none" xmlns="http://www.w3.org/2000/svg">
<path d="M25.0809 218.509H59.2398C67.8356 218.509 75.0202 220.048 80.7935 223.127C86.631 226.142 90.8327 230.601 93.3986 236.502C95.4514 241.121 96.4777 246.445 96.4777 252.475C96.4777 258.826 95.4514 264.182 93.3986 268.544C90.7686 274.446 86.5348 278.904 80.6973 281.919C74.924 284.934 67.7715 286.442 59.2398 286.442H25.0809V218.509ZM57.1229 270.95C61.6774 270.95 65.3659 270.212 68.1884 268.737C71.0751 267.261 73.192 265.08 74.5391 262.194C75.6296 259.756 76.1749 256.517 76.1749 252.475C76.1749 248.498 75.5975 245.226 74.4429 242.661C73.0957 239.774 71.0109 237.625 68.1884 236.214C65.3659 234.738 61.6774 234.001 57.1229 234.001H43.9404V270.95H57.1229ZM107.938 233.038C106.206 233.038 104.634 232.686 103.223 231.98C101.812 231.274 100.721 230.28 99.9515 228.997C99.1817 227.65 98.7968 226.142 98.7968 224.475C98.7968 222.807 99.1817 221.331 99.9515 220.048C100.785 218.701 101.876 217.675 103.223 216.969C104.634 216.199 106.206 215.815 107.938 215.815C109.67 215.815 111.209 216.199 112.557 216.969C113.968 217.675 115.058 218.701 115.828 220.048C116.662 221.331 117.079 222.807 117.079 224.475C117.079 226.142 116.662 227.65 115.828 228.997C115.058 230.28 113.968 231.274 112.557 231.98C111.209 232.686 109.67 233.038 107.938 233.038ZM98.9893 238.234H116.694V286.442H98.9893V238.234ZM178.303 249.781C179.971 253.437 180.804 257.607 180.804 262.29C180.804 267.101 179.971 271.271 178.303 274.799C176.442 278.968 173.588 282.208 169.739 284.517C165.954 286.827 161.464 287.981 156.268 287.981C152.611 287.981 149.276 287.372 146.261 286.153C143.31 284.934 140.808 283.138 138.755 280.765V305.975H121.05V238.234H138.274V244.393C140.327 241.827 142.861 239.902 145.876 238.619C148.955 237.272 152.419 236.599 156.268 236.599C161.464 236.599 165.954 237.753 169.739 240.063C173.588 242.372 176.442 245.611 178.303 249.781ZM161.079 268.641C161.785 267.165 162.137 265.048 162.137 262.29C162.137 259.467 161.785 257.318 161.079 255.843C160.181 253.919 158.802 252.475 156.941 251.513C155.081 250.551 152.868 250.07 150.302 250.07C146.774 250.07 143.919 251.064 141.738 253.053C139.557 255.041 138.467 257.864 138.467 261.52V263.06C138.467 265.497 138.948 267.582 139.91 269.314C140.936 271.046 142.348 272.361 144.144 273.259C145.94 274.093 147.993 274.51 150.302 274.51C152.868 274.51 155.081 274.029 156.941 273.067C158.802 272.04 160.181 270.565 161.079 268.641ZM182.39 218.509H200.095V286.442H182.39V218.509ZM232.452 287.981C225.395 287.981 219.365 286.698 214.362 284.132C209.423 281.566 205.894 277.846 203.777 272.971C202.366 269.891 201.661 266.331 201.661 262.29C201.661 258.249 202.366 254.688 203.777 251.609C205.894 246.734 209.423 243.013 214.362 240.447C219.365 237.882 225.395 236.599 232.452 236.599C239.508 236.599 245.506 237.882 250.445 240.447C255.385 242.949 258.913 246.574 261.03 251.321C262.505 254.656 263.243 258.313 263.243 262.29C263.243 266.331 262.505 270.02 261.03 273.355C258.913 278.102 255.385 281.727 250.445 284.229C245.506 286.73 239.508 287.981 232.452 287.981ZM232.452 274.606C235.21 274.606 237.519 274.125 239.38 273.163C241.304 272.201 242.683 270.757 243.517 268.833C244.223 267.229 244.576 265.048 244.576 262.29C244.576 259.467 244.223 257.318 243.517 255.843C242.683 253.919 241.304 252.475 239.38 251.513C237.519 250.487 235.21 249.973 232.452 249.973C229.757 249.973 227.448 250.487 225.524 251.513C223.663 252.539 222.284 253.983 221.386 255.843C220.681 257.447 220.328 259.596 220.328 262.29C220.328 265.112 220.681 267.261 221.386 268.737C222.22 270.661 223.567 272.137 225.427 273.163C227.352 274.125 229.693 274.606 232.452 274.606ZM334.807 236.599C340.901 236.599 345.615 238.298 348.951 241.698C352.287 245.098 353.955 249.973 353.955 256.324V286.442H336.25V259.596C336.25 253.181 333.363 249.973 327.59 249.973C324.511 249.973 322.169 250.872 320.566 252.668C318.962 254.464 318.16 257.03 318.16 260.365V286.442H300.551V259.596C300.551 253.181 297.633 249.973 291.795 249.973C288.716 249.973 286.375 250.872 284.771 252.668C283.231 254.464 282.462 257.062 282.462 260.462V286.442H264.757V238.234H282.462V244.489C284.386 241.987 286.824 240.063 289.775 238.715C292.725 237.304 296.125 236.599 299.974 236.599C304.015 236.599 307.447 237.368 310.27 238.908C313.157 240.447 315.273 242.661 316.621 245.547C318.737 242.532 321.271 240.287 324.222 238.812C327.173 237.336 330.701 236.599 334.807 236.599ZM408.472 247.664C409.883 250.679 410.589 254.496 410.589 259.115V286.442H392.98V280.572C390.992 283.01 388.458 284.87 385.379 286.153C382.364 287.372 378.675 287.981 374.313 287.981C369.823 287.981 366.038 287.276 362.959 285.864C359.944 284.453 357.763 282.304 356.416 279.417C355.582 277.429 355.165 275.376 355.165 273.259C355.165 270.95 355.582 268.801 356.416 266.812C358.212 262.899 361.484 260.237 366.231 258.826C370.978 257.415 377.04 256.709 384.417 256.709H392.884V256.035C392.884 254.945 392.82 254.079 392.692 253.437C392.563 252.796 392.371 252.187 392.114 251.609C391.024 249.043 388.265 247.76 383.839 247.76C379.477 247.76 376.751 248.947 375.66 251.321C375.34 252.154 375.179 252.924 375.179 253.63H357.378C357.506 251.192 357.988 249.107 358.821 247.375C360.489 243.591 363.472 240.864 367.77 239.197C372.068 237.465 377.36 236.599 383.647 236.599C390.318 236.599 395.707 237.465 399.812 239.197C403.918 240.929 406.804 243.751 408.472 247.664ZM381.53 276.05C384.16 276.05 386.405 275.633 388.265 274.799C390.126 273.965 391.441 272.714 392.211 271.046C392.724 269.827 392.98 268.288 392.98 266.427V265.85H384.994C381.915 265.85 379.445 266.075 377.585 266.524C375.789 266.909 374.602 267.71 374.025 268.929C373.768 269.571 373.64 270.244 373.64 270.95C373.64 271.72 373.768 272.393 374.025 272.971C374.923 275.023 377.424 276.05 381.53 276.05ZM436.956 287.5C430.67 287.5 426.019 286.089 423.004 283.266C419.989 280.444 418.481 275.953 418.481 269.795V251.609H410.88V238.234H418.481V226.591H436.09V238.234H449.657V251.609H436.09V266.235C436.09 268.865 436.667 270.757 437.822 271.912C439.041 273.067 440.837 273.644 443.211 273.644C445.135 273.644 447.156 273.388 449.273 272.874V286.249C444.975 287.083 440.869 287.5 436.956 287.5ZM461.057 233.038C459.326 233.038 457.754 232.686 456.343 231.98C454.931 231.274 453.841 230.28 453.071 228.997C452.301 227.65 451.916 226.142 451.916 224.475C451.916 222.807 452.301 221.331 453.071 220.048C453.905 218.701 454.996 217.675 456.343 216.969C457.754 216.199 459.326 215.815 461.057 215.815C462.789 215.815 464.329 216.199 465.676 216.969C467.087 217.675 468.178 218.701 468.948 220.048C469.782 221.331 470.199 222.807 470.199 224.475C470.199 226.142 469.782 227.65 468.948 228.997C468.178 230.28 467.087 231.274 465.676 231.98C464.329 232.686 462.789 233.038 461.057 233.038ZM452.109 238.234H469.814V286.442H452.109V238.234ZM501.497 288.077C494.89 288.077 489.117 286.891 484.177 284.517C479.302 282.08 475.806 278.455 473.689 273.644C472.149 270.244 471.38 266.46 471.38 262.29C471.38 258.184 472.149 254.4 473.689 250.936C475.742 246.253 479.206 242.693 484.081 240.255C488.956 237.817 494.762 236.599 501.497 236.599C511.761 236.599 519.683 239.164 525.264 244.296C529.177 247.76 531.294 252.251 531.615 257.767H512.659C512.466 255.779 511.6 254.015 510.061 252.475C508.072 250.807 505.25 249.973 501.593 249.973C499.092 249.973 496.943 250.455 495.146 251.417C493.414 252.379 492.131 253.79 491.298 255.651C490.849 256.484 490.528 257.415 490.335 258.441C490.207 259.467 490.143 260.75 490.143 262.29C490.143 263.765 490.207 265.016 490.335 266.043C490.528 267.069 490.849 267.999 491.298 268.833C492.131 270.693 493.414 272.137 495.146 273.163C496.943 274.125 499.092 274.606 501.593 274.606C505.314 274.606 508.136 273.74 510.061 272.008C510.831 271.303 511.44 270.469 511.889 269.507C512.338 268.544 512.627 267.518 512.755 266.427H531.807C531.615 269.314 530.973 271.912 529.883 274.221C528.856 276.467 527.317 278.519 525.264 280.38C522.441 282.881 519.01 284.806 514.968 286.153C510.991 287.436 506.501 288.077 501.497 288.077Z" fill="#0A5075"/>
<rect x="164.648" y="313.624" width="224.703" height="71.9347" fill="#0C9FF7"/>
<path d="M241.311 335.974L231.152 366.624H222.426L216.044 346.263L209.706 366.624H200.98L190.734 335.974H199.677L205.625 355.379L211.529 335.974H220.603L226.463 355.293L232.411 335.974H241.311ZM264.048 360.763H249.548L247.29 366.624H238.26L250.676 335.974H262.875L275.292 366.624H266.305L264.048 360.763ZM261.703 354.555L256.841 341.834H256.754L251.892 354.555H261.703ZM279.717 342.789H271.772V335.974H296.171V342.789H288.226V366.624H279.717V342.789ZM314.944 367.535C310.95 367.535 307.535 366.797 304.698 365.321C301.891 363.816 299.85 361.631 298.577 358.766C297.622 356.537 297.144 354.048 297.144 351.299C297.144 348.52 297.622 346.046 298.577 343.875C299.85 341.038 301.905 338.868 304.742 337.363C307.607 335.829 311.008 335.062 314.944 335.062C317.549 335.062 319.951 335.424 322.151 336.147C324.35 336.871 326.217 337.927 327.751 339.316C329.024 340.445 329.994 341.777 330.66 343.31C331.354 344.844 331.745 346.509 331.832 348.303H322.802C322.715 347.464 322.483 346.697 322.107 346.002C321.76 345.279 321.297 344.656 320.718 344.135C319.329 342.862 317.361 342.225 314.814 342.225C312.932 342.225 311.341 342.587 310.038 343.31C308.736 344.005 307.781 345.033 307.173 346.393C306.883 347.03 306.666 347.753 306.522 348.563C306.377 349.345 306.305 350.257 306.305 351.299C306.305 353.325 306.58 354.96 307.13 356.204C307.737 357.594 308.707 358.635 310.038 359.33C311.398 360.025 313.005 360.372 314.857 360.372C316.131 360.372 317.288 360.213 318.33 359.894C319.372 359.547 320.255 359.041 320.978 358.375C321.528 357.883 321.962 357.304 322.281 356.638C322.628 355.944 322.831 355.22 322.889 354.468H331.919C331.861 356.233 331.485 357.854 330.79 359.33C330.124 360.806 329.169 362.109 327.925 363.237C326.391 364.627 324.495 365.697 322.237 366.45C319.98 367.173 317.549 367.535 314.944 367.535ZM335.501 335.974H344.01V347.825H358.076V335.974H366.585V366.624H358.076V354.641H344.01V366.624H335.501V335.974Z" fill="white"/>
</svg>
