<svg width="1025" height="325" viewBox="0 0 1025 325" fill="none" xmlns="http://www.w3.org/2000/svg">
<path d="M943.594 91.9403C953.309 91.9403 962.195 93.5398 970.252 96.7387C978.427 99.9376 985.535 104.44 991.578 110.245C997.738 116.051 1002.48 122.863 1005.79 130.683C1009.23 138.384 1010.95 146.796 1010.95 155.918C1010.95 165.16 1009.23 173.749 1005.79 181.687C1002.48 189.507 997.738 196.379 991.578 202.302C985.535 208.108 978.427 212.669 970.252 215.987C962.195 219.186 953.309 220.785 943.594 220.785C933.997 220.785 925.111 219.186 916.937 215.987C908.762 212.669 901.594 208.108 895.433 202.302C889.39 196.379 884.651 189.507 881.215 181.687C877.898 173.749 876.239 165.16 876.239 155.918C876.239 146.796 877.898 138.324 881.215 130.505C884.651 122.685 889.39 115.932 895.433 110.245C901.594 104.44 908.762 99.9376 916.937 96.7387C925.111 93.5398 933.997 91.9403 943.594 91.9403ZM943.949 119.131C939.329 119.131 934.886 120.079 930.621 121.974C926.474 123.752 922.801 126.358 919.602 129.794C916.522 133.111 914.093 137.021 912.316 141.523C910.539 145.907 909.65 150.765 909.65 156.096C909.65 161.309 910.539 166.226 912.316 170.847C914.093 175.349 916.581 179.318 919.78 182.754C922.979 186.071 926.652 188.677 930.798 190.573C934.945 192.469 939.329 193.417 943.949 193.417C948.57 193.417 952.895 192.469 956.923 190.573C961.07 188.677 964.683 186.071 967.764 182.754C970.844 179.318 973.214 175.349 974.872 170.847C976.649 166.226 977.538 161.309 977.538 156.096C977.538 150.765 976.649 145.907 974.872 141.523C973.214 137.021 970.844 133.111 967.764 129.794C964.683 126.358 961.07 123.752 956.923 121.974C952.895 120.079 948.57 119.131 943.949 119.131Z" fill="#0A5075"/>
<path d="M744.701 93.8951H777.223V144.9H827.517V93.8951H860.039V218.475H827.517V170.491H777.223V218.475H744.701V93.8951Z" fill="#0A5075"/>
<path d="M711.756 135.659C707.727 130.564 702.929 126.536 697.36 123.574C691.792 120.612 686.283 119.131 680.833 119.131C676.094 119.131 671.651 120.079 667.504 121.974C663.357 123.752 659.744 126.299 656.663 129.616C653.583 132.815 651.213 136.666 649.555 141.168C647.896 145.552 647.067 150.35 647.067 155.563C647.067 160.776 647.896 165.634 649.555 170.136C651.213 174.519 653.583 178.37 656.663 181.687C659.744 185.005 663.357 187.611 667.504 189.507C671.651 191.284 676.094 192.173 680.833 192.173C686.046 192.173 691.377 190.869 696.827 188.263C702.396 185.538 707.372 181.924 711.756 177.422L730.771 197.504C726.269 202.243 721.175 206.39 715.488 209.944C709.801 213.38 703.818 216.046 697.538 217.941C691.377 219.837 685.217 220.785 679.056 220.785C669.696 220.785 661.047 219.186 653.109 215.987C645.171 212.669 638.24 208.108 632.316 202.302C626.511 196.379 621.949 189.507 618.632 181.687C615.315 173.749 613.656 165.16 613.656 155.918C613.656 146.796 615.315 138.384 618.632 130.683C621.949 122.863 626.629 116.051 632.672 110.245C638.714 104.44 645.763 99.9376 653.82 96.7387C661.995 93.5398 670.821 91.9403 680.3 91.9403C686.461 91.9403 692.621 92.8289 698.782 94.6061C704.943 96.2647 710.748 98.6935 716.198 101.892C721.648 105.091 726.447 108.883 730.594 113.266L711.756 135.659Z" fill="#0A5075"/>
<path d="M501.729 93.8951H600.006V119.486H534.251V143.3H593.609V168.714H534.251V192.883H601.784V218.475H501.729V93.8951Z" fill="#0A5075"/>
<path d="M888.553 277.801H898.969L893.902 263.049H893.789L888.553 277.801ZM889.397 253.139H898.463L913.496 293.342H904.318L901.278 284.389H886.244L883.091 293.342H874.194L889.397 253.139Z" fill="#31B8FF"/>
<path d="M830.842 253.139H839.683V293.342H830.842V253.139Z" fill="#31B8FF"/>
<path d="M766.979 285.909H774.862C776.138 285.909 777.377 285.703 778.578 285.29C779.779 284.877 780.849 284.201 781.787 283.263C782.726 282.287 783.476 281.029 784.04 279.49C784.603 277.951 784.884 276.074 784.884 273.86C784.884 271.833 784.678 270.012 784.265 268.398C783.889 266.746 783.251 265.338 782.35 264.175C781.449 263.011 780.248 262.129 778.747 261.528C777.283 260.89 775.462 260.571 773.285 260.571H766.979V285.909ZM758.138 253.139H775.481C778.071 253.139 780.473 253.552 782.688 254.377C784.94 255.203 786.874 256.442 788.488 258.094C790.139 259.745 791.416 261.81 792.317 264.287C793.255 266.765 793.724 269.674 793.724 273.015C793.724 275.943 793.349 278.646 792.598 281.123C791.847 283.601 790.703 285.74 789.163 287.542C787.662 289.344 785.766 290.77 783.477 291.821C781.224 292.835 778.559 293.342 775.481 293.342H758.138V253.139Z" fill="#31B8FF"/>
<path d="M690.658 253.139H720.726V260.571H699.498V269.186H718.981V276.056H699.498V285.909H721.177V293.342H690.658V253.139Z" fill="#31B8FF"/>
<path d="M608.606 253.139H621.05L630.454 280.785H630.566L639.463 253.139H651.906V293.342H643.629V264.85H643.517L633.663 293.342H626.85L616.996 265.132H616.884V293.342H608.606V253.139Z" fill="#31B8FF"/>
<path d="M451.167 192.687C467.461 176.393 467.461 149.977 451.167 133.683L402.82 85.3356L324.97 163.185L402.82 241.035L451.167 192.687Z" fill="#66CCF5"/>
<path d="M354.472 36.9878C338.178 20.6944 311.762 20.6944 295.468 36.9878L247.121 85.3356L324.97 163.185L402.82 85.3356L354.472 36.9878Z" fill="#34BEF3"/>
<path d="M247.121 241.035L295.468 289.382C311.762 305.676 338.178 305.676 354.472 289.382L402.82 241.035L324.97 163.185L247.121 241.035Z" fill="#99DEFA"/>
<path d="M247.121 85.3356L169.271 163.185L247.121 241.035L324.97 163.185L247.121 85.3356Z" fill="#05ACEE"/>
<path d="M247.121 85.3356L198.773 36.9878C182.479 20.6945 156.063 20.6944 139.769 36.9878L91.4215 85.3356L169.271 163.185L247.121 85.3356Z" fill="#022D3D"/>
<path d="M91.4215 85.3356L43.0737 133.683C26.7804 149.977 26.7804 176.393 43.0737 192.687L91.4215 241.035L169.271 163.185L91.4215 85.3356Z" fill="#00577A"/>
<path d="M139.769 289.382C156.063 305.676 182.479 305.676 198.773 289.382L247.121 241.035L169.271 163.185L91.4215 241.035L139.769 289.382Z" fill="#0281B3"/>
</svg>
