<svg width="1296" height="147" viewBox="0 0 1296 147" fill="none" xmlns="http://www.w3.org/2000/svg">
<path d="M106.295 61.9564V21.4474C106.295 18.5707 108.627 16.2388 111.504 16.2388C114.381 16.2388 116.713 18.5707 116.713 21.4474V61.9564C116.712 71.1783 112.431 79.8778 105.125 85.5041L101.89 87.9947L110.352 94.5108L115.769 90.3398C120.514 86.6856 123.294 81.0355 123.294 75.0462V34.5371C123.295 31.6606 125.627 29.3285 128.503 29.3285C131.38 29.3285 133.712 31.6605 133.712 34.5371V75.0462C133.712 84.268 129.431 92.9675 122.124 98.5938L113.582 105.17C113.557 105.191 113.53 105.21 113.504 105.23L96.58 118.263C94.707 119.705 92.0979 119.705 90.2249 118.263L73.2485 105.191C73.2235 105.172 73.1983 105.153 73.1737 105.133L64.681 98.5938C57.3743 92.9675 53.0933 84.268 53.0933 75.0462V34.5371C53.0934 31.6605 55.4253 29.3285 58.3019 29.3285C61.1784 29.3285 63.5104 31.6605 63.5105 34.5371V75.0462C63.5105 81.0355 66.2907 86.6856 71.0361 90.3398L76.4027 94.4725L84.8152 87.9947L81.6305 85.5424C74.3238 79.9161 70.0428 71.2165 70.0428 61.9947V21.4857C70.0428 18.609 72.3747 16.2771 75.2514 16.2771C78.128 16.2771 80.46 18.609 80.46 21.4857V61.9947C80.46 67.9841 83.2402 73.6342 87.9856 77.2884L93.3522 81.4211L98.7696 77.2501L99.2083 76.9018C103.686 73.2426 106.295 67.7588 106.295 61.9564ZM84.9397 101.046L93.4025 107.563L101.815 101.084L93.3522 94.5682L84.9397 101.046Z" fill="black"/>
<path d="M250.274 78.9648C250.274 89.5231 247.325 97.3871 241.427 102.557C235.529 107.654 227.373 110.203 216.961 110.203C206.403 110.203 198.211 107.654 192.386 102.557C186.633 97.46 183.757 89.5959 183.757 78.9648V30.4698H200.905V78.9648C200.905 81.0765 201.087 83.1517 201.451 85.1906C201.815 87.2294 202.58 89.0498 203.745 90.6517C204.91 92.1808 206.512 93.4551 208.551 94.4745C210.662 95.4211 213.466 95.8944 216.961 95.8944C223.077 95.8944 227.301 94.5473 229.631 91.8532C231.961 89.0862 233.126 84.7901 233.126 78.9648V30.4698H250.274V78.9648ZM263.404 51.9867H278.149V59.8508H278.477C280.443 56.5741 282.991 54.2076 286.122 52.7513C289.253 51.2222 292.457 50.4576 295.734 50.4576C299.884 50.4576 303.27 51.0401 305.891 52.2052C308.586 53.2974 310.697 54.863 312.226 56.9018C313.756 58.8678 314.811 61.3071 315.394 64.2197C316.049 67.0595 316.377 70.227 316.377 73.7221V108.455H300.867V76.5619C300.867 71.9018 300.139 68.443 298.683 66.1857C297.226 63.8557 294.642 62.6906 290.928 62.6906C286.705 62.6906 283.646 63.9649 281.753 66.5134C279.86 68.9891 278.913 73.1032 278.913 78.8556V108.455H263.404V51.9867ZM344.095 43.2489H328.585V30.4698H344.095V43.2489ZM328.585 51.9867H344.095V108.455H328.585V51.9867ZM375.967 51.9867H387.327V62.3629H375.967V90.324C375.967 92.9454 376.404 94.693 377.278 95.5668C378.152 96.4405 379.9 96.8774 382.521 96.8774C383.395 96.8774 384.232 96.841 385.033 96.7682C385.834 96.6954 386.599 96.5862 387.327 96.4405V108.455C386.016 108.674 384.56 108.819 382.958 108.892C381.356 108.965 379.79 109.001 378.261 109.001C375.858 109.001 373.565 108.819 371.38 108.455C369.268 108.164 367.375 107.545 365.701 106.598C364.099 105.652 362.824 104.305 361.878 102.557C360.931 100.809 360.458 98.5158 360.458 95.676V62.3629H351.065V51.9867H360.458V35.0572H375.967V51.9867ZM432.716 74.159C431.988 70.227 430.677 67.2416 428.784 65.2027C426.963 63.1639 424.16 62.1445 420.373 62.1445C417.898 62.1445 415.823 62.5814 414.148 63.4552C412.546 64.2561 411.235 65.2756 410.216 66.5134C409.269 67.7513 408.577 69.062 408.14 70.4454C407.776 71.8289 407.558 73.0668 407.485 74.159H432.716ZM407.485 83.9891C407.704 89.0134 408.978 92.6541 411.308 94.9114C413.638 97.1687 416.988 98.2973 421.356 98.2973C424.488 98.2973 427.182 97.5328 429.439 96.0036C431.696 94.4017 433.08 92.727 433.589 90.9794H447.242C445.058 97.7512 441.708 102.593 437.194 105.506C432.679 108.419 427.218 109.875 420.81 109.875C416.369 109.875 412.364 109.183 408.796 107.8C405.228 106.343 402.206 104.305 399.73 101.683C397.255 99.0619 395.325 95.9308 393.941 92.2901C392.631 88.6493 391.975 84.6444 391.975 80.2755C391.975 76.0522 392.667 72.1202 394.051 68.4794C395.434 64.8387 397.4 61.7076 399.949 59.0862C402.497 56.3921 405.519 54.2804 409.014 52.7513C412.582 51.2222 416.514 50.4576 420.81 50.4576C425.616 50.4576 429.803 51.4042 433.371 53.2974C436.939 55.1178 439.852 57.5935 442.109 60.7246C444.439 63.8557 446.114 67.4236 447.133 71.4285C448.153 75.4333 448.517 79.6202 448.225 83.9891H407.485ZM497.509 80.0571C497.509 77.727 497.29 75.5061 496.854 73.3945C496.417 71.21 495.652 69.3168 494.56 67.7149C493.54 66.0401 492.193 64.693 490.519 63.6736C488.844 62.6542 486.732 62.1445 484.184 62.1445C481.635 62.1445 479.487 62.6542 477.739 63.6736C475.992 64.693 474.572 66.0401 473.48 67.7149C472.46 69.3896 471.696 71.3192 471.186 73.5037C470.749 75.6153 470.531 77.8362 470.531 80.1663C470.531 82.3508 470.786 84.5352 471.295 86.7197C471.805 88.9041 472.606 90.8702 473.698 92.6177C474.863 94.2925 476.283 95.676 477.958 96.7682C479.705 97.7876 481.781 98.2973 484.184 98.2973C486.732 98.2973 488.844 97.7876 490.519 96.7682C492.266 95.7488 493.65 94.4017 494.669 92.727C495.688 90.9794 496.417 89.0134 496.854 86.8289C497.29 84.6444 497.509 82.3872 497.509 80.0571ZM497.727 101.246H497.509C495.688 104.305 493.286 106.525 490.3 107.909C487.388 109.22 484.074 109.875 480.361 109.875C476.138 109.875 472.424 109.074 469.22 107.472C466.016 105.797 463.358 103.576 461.247 100.809C459.208 97.9697 457.642 94.7294 456.55 91.0886C455.531 87.4478 455.021 83.6614 455.021 79.7294C455.021 75.943 455.531 72.3022 456.55 68.8071C457.642 65.2391 459.208 62.1081 461.247 59.4139C463.358 56.7197 465.98 54.5717 469.111 52.9698C472.242 51.295 475.883 50.4576 480.033 50.4576C483.383 50.4576 486.55 51.1858 489.536 52.6421C492.594 54.0256 494.997 56.1008 496.744 58.8678H496.963V30.4698H512.472V108.455H497.727V101.246ZM556.232 30.4698H580.371L598.611 84.0983H598.829L616.087 30.4698H640.225V108.455H624.169V53.1882H623.951L604.837 108.455H591.621L572.507 53.7343H572.288V108.455H556.232V30.4698ZM691.694 74.159C690.966 70.227 689.655 67.2416 687.762 65.2027C685.941 63.1639 683.138 62.1445 679.352 62.1445C676.876 62.1445 674.801 62.5814 673.126 63.4552C671.524 64.2561 670.213 65.2756 669.194 66.5134C668.247 67.7513 667.556 69.062 667.119 70.4454C666.755 71.8289 666.536 73.0668 666.463 74.159H691.694ZM666.463 83.9891C666.682 89.0134 667.956 92.6541 670.286 94.9114C672.616 97.1687 675.966 98.2973 680.335 98.2973C683.466 98.2973 686.16 97.5328 688.417 96.0036C690.674 94.4017 692.058 92.727 692.568 90.9794H706.221C704.036 97.7512 700.687 102.593 696.172 105.506C691.657 108.419 686.196 109.875 679.789 109.875C675.347 109.875 671.342 109.183 667.774 107.8C664.206 106.343 661.184 104.305 658.708 101.683C656.233 99.0619 654.303 95.9308 652.92 92.2901C651.609 88.6493 650.954 84.6444 650.954 80.2755C650.954 76.0522 651.645 72.1202 653.029 68.4794C654.412 64.8387 656.378 61.7076 658.927 59.0862C661.475 56.3921 664.497 54.2804 667.992 52.7513C671.56 51.2222 675.492 50.4576 679.789 50.4576C684.594 50.4576 688.781 51.4042 692.349 53.2974C695.917 55.1178 698.83 57.5935 701.087 60.7246C703.417 63.8557 705.092 67.4236 706.111 71.4285C707.131 75.4333 707.495 79.6202 707.204 83.9891H666.463ZM756.487 80.0571C756.487 77.727 756.269 75.5061 755.832 73.3945C755.395 71.21 754.63 69.3168 753.538 67.7149C752.519 66.0401 751.171 64.693 749.497 63.6736C747.822 62.6542 745.71 62.1445 743.162 62.1445C740.613 62.1445 738.465 62.6542 736.718 63.6736C734.97 64.693 733.55 66.0401 732.458 67.7149C731.439 69.3896 730.674 71.3192 730.164 73.5037C729.727 75.6153 729.509 77.8362 729.509 80.1663C729.509 82.3508 729.764 84.5352 730.273 86.7197C730.783 88.9041 731.584 90.8702 732.676 92.6177C733.841 94.2925 735.261 95.676 736.936 96.7682C738.684 97.7876 740.759 98.2973 743.162 98.2973C745.71 98.2973 747.822 97.7876 749.497 96.7682C751.244 95.7488 752.628 94.4017 753.647 92.727C754.667 90.9794 755.395 89.0134 755.832 86.8289C756.269 84.6444 756.487 82.3872 756.487 80.0571ZM756.705 101.246H756.487C754.667 104.305 752.264 106.525 749.278 107.909C746.366 109.22 743.053 109.875 739.339 109.875C735.116 109.875 731.402 109.074 728.198 107.472C724.994 105.797 722.337 103.576 720.225 100.809C718.186 97.9697 716.621 94.7294 715.528 91.0886C714.509 87.4478 713.999 83.6614 713.999 79.7294C713.999 75.943 714.509 72.3022 715.528 68.8071C716.621 65.2391 718.186 62.1081 720.225 59.4139C722.337 56.7197 724.958 54.5717 728.089 52.9698C731.22 51.295 734.861 50.4576 739.011 50.4576C742.361 50.4576 745.528 51.1858 748.514 52.6421C751.572 54.0256 753.975 56.1008 755.722 58.8678H755.941V30.4698H771.451V108.455H756.705V101.246ZM799.12 43.2489H783.61V30.4698H799.12V43.2489ZM783.61 51.9867H799.12V108.455H783.61V51.9867ZM810.677 69.3532C810.895 65.7124 811.806 62.6906 813.408 60.2877C815.009 57.8848 817.048 55.9552 819.524 54.4989C822 53.0426 824.767 52.0232 827.825 51.4406C830.956 50.7853 834.087 50.4576 837.218 50.4576C840.058 50.4576 842.934 50.6761 845.847 51.113C848.759 51.477 851.417 52.2416 853.82 53.4067C856.223 54.5717 858.189 56.21 859.718 58.3217C861.247 60.3605 862.012 63.0911 862.012 66.5134V95.8944C862.012 98.443 862.157 100.882 862.449 103.212C862.74 105.542 863.25 107.29 863.978 108.455H848.25C847.958 107.581 847.704 106.708 847.485 105.834C847.34 104.887 847.23 103.941 847.157 102.994C844.682 105.542 841.769 107.326 838.42 108.346C835.07 109.365 831.648 109.875 828.153 109.875C825.458 109.875 822.946 109.547 820.616 108.892C818.286 108.237 816.247 107.217 814.5 105.834C812.752 104.45 811.369 102.703 810.349 100.591C809.403 98.4794 808.929 95.9672 808.929 93.0546C808.929 89.8507 809.476 87.2294 810.568 85.1906C811.733 83.0789 813.189 81.4042 814.937 80.1663C816.757 78.9284 818.796 78.0182 821.053 77.4357C823.383 76.7804 825.713 76.2707 828.043 75.9066C830.374 75.5425 832.667 75.2513 834.924 75.0328C837.182 74.8144 839.184 74.4867 840.932 74.0498C842.679 73.6129 844.063 72.994 845.082 72.193C846.102 71.3192 846.575 70.0814 846.502 68.4794C846.502 66.8047 846.211 65.494 845.628 64.5474C845.119 63.528 844.39 62.7634 843.444 62.2537C842.57 61.6712 841.514 61.3071 840.276 61.1615C839.111 60.943 837.837 60.8338 836.454 60.8338C833.395 60.8338 830.992 61.4892 829.245 62.7998C827.497 64.1105 826.478 66.295 826.187 69.3532H810.677ZM846.502 80.8216C845.847 81.4042 845.009 81.8775 843.99 82.2415C843.043 82.5328 841.988 82.7877 840.823 83.0061C839.73 83.2245 838.565 83.4066 837.327 83.5522C836.09 83.6978 834.852 83.8799 833.614 84.0983C832.449 84.3168 831.284 84.608 830.119 84.9721C829.026 85.3362 828.043 85.8459 827.17 86.5012C826.369 87.0838 825.713 87.8483 825.204 88.7949C824.694 89.7415 824.439 90.943 824.439 92.3993C824.439 93.7828 824.694 94.9478 825.204 95.8944C825.713 96.841 826.405 97.6056 827.279 98.1881C828.153 98.6978 829.172 99.0619 830.337 99.2803C831.502 99.4988 832.704 99.608 833.941 99.608C837 99.608 839.366 99.0983 841.041 98.0789C842.716 97.0595 843.954 95.858 844.755 94.4745C845.556 93.0182 846.029 91.5619 846.174 90.1056C846.393 88.6493 846.502 87.4842 846.502 86.6105V80.8216ZM962.447 99.608C959.388 103.54 956.003 106.307 952.289 107.909C948.575 109.438 944.825 110.203 941.039 110.203C935.068 110.203 929.68 109.183 924.874 107.144C920.141 105.033 916.136 102.157 912.859 98.5158C909.583 94.875 907.071 90.6153 905.323 85.7367C903.575 80.7852 902.702 75.4697 902.702 69.7901C902.702 63.9649 903.575 58.5765 905.323 53.6251C907.071 48.6008 909.583 44.2319 912.859 40.5183C916.136 36.8047 920.141 33.8921 924.874 31.7805C929.68 29.6688 935.068 28.613 941.039 28.613C945.044 28.613 948.903 29.2319 952.617 30.4698C956.403 31.6349 959.789 33.3824 962.774 35.7125C965.833 38.0426 968.345 40.9188 970.311 44.3411C972.277 47.7635 973.478 51.6955 973.915 56.1372H957.532C956.512 51.7683 954.546 48.4916 951.634 46.3072C948.721 44.1227 945.189 43.0305 941.039 43.0305C937.18 43.0305 933.903 43.795 931.209 45.3241C928.515 46.7804 926.33 48.7829 924.656 51.3314C922.981 53.8071 921.743 56.6469 920.942 59.8508C920.214 63.0547 919.85 66.3678 919.85 69.7901C919.85 73.0668 920.214 76.2707 920.942 79.4017C921.743 82.46 922.981 85.227 924.656 87.7027C926.33 90.1784 928.515 92.1808 931.209 93.71C933.903 95.1663 937.18 95.8944 941.039 95.8944C946.719 95.8944 951.088 94.4745 954.146 91.6347C957.277 88.7221 959.097 84.5352 959.607 79.0741H942.35V66.295H975.117V108.455H964.194L962.447 99.608ZM987.327 51.9867H1002.07V62.4722H1002.29C1003.02 60.7246 1004 59.1227 1005.24 57.6663C1006.48 56.1372 1007.9 54.863 1009.5 53.8435C1011.1 52.7513 1012.81 51.9139 1014.63 51.3314C1016.45 50.7489 1018.35 50.4576 1020.31 50.4576C1021.33 50.4576 1022.46 50.6397 1023.7 51.0037V65.4212C1022.97 65.2756 1022.1 65.1663 1021.08 65.0935C1020.06 64.9479 1019.07 64.8751 1018.13 64.8751C1015.29 64.8751 1012.88 65.3484 1010.92 66.295C1008.95 67.2416 1007.35 68.5522 1006.11 70.227C1004.95 71.8289 1004.11 73.7221 1003.6 75.9066C1003.09 78.0911 1002.84 80.4576 1002.84 83.0061V108.455H987.327V51.9867ZM1041.62 80.2755C1041.62 82.5328 1041.84 84.7537 1042.28 86.9381C1042.71 89.0498 1043.44 90.9794 1044.46 92.727C1045.55 94.4017 1046.97 95.7488 1048.72 96.7682C1050.47 97.7876 1052.65 98.2973 1055.27 98.2973C1057.89 98.2973 1060.08 97.7876 1061.83 96.7682C1063.65 95.7488 1065.07 94.4017 1066.09 92.727C1067.18 90.9794 1067.94 89.0498 1068.38 86.9381C1068.82 84.7537 1069.04 82.5328 1069.04 80.2755C1069.04 78.0182 1068.82 75.7974 1068.38 73.6129C1067.94 71.4285 1067.18 69.4988 1066.09 67.8241C1065.07 66.1493 1063.65 64.8023 1061.83 63.7828C1060.08 62.6906 1057.89 62.1445 1055.27 62.1445C1052.65 62.1445 1050.47 62.6906 1048.72 63.7828C1046.97 64.8023 1045.55 66.1493 1044.46 67.8241C1043.44 69.4988 1042.71 71.4285 1042.28 73.6129C1041.84 75.7974 1041.62 78.0182 1041.62 80.2755ZM1026.11 80.2755C1026.11 75.761 1026.8 71.6833 1028.19 68.0425C1029.57 64.329 1031.54 61.1979 1034.08 58.6494C1036.63 56.028 1039.69 54.0256 1043.26 52.6421C1046.83 51.1858 1050.83 50.4576 1055.27 50.4576C1059.72 50.4576 1063.72 51.1858 1067.29 52.6421C1070.93 54.0256 1074.02 56.028 1076.57 58.6494C1079.12 61.1979 1081.09 64.329 1082.47 68.0425C1083.85 71.6833 1084.55 75.761 1084.55 80.2755C1084.55 84.7901 1083.85 88.8677 1082.47 92.5085C1081.09 96.1493 1079.12 99.2803 1076.57 101.902C1074.02 104.45 1070.93 106.416 1067.29 107.8C1063.72 109.183 1059.72 109.875 1055.27 109.875C1050.83 109.875 1046.83 109.183 1043.26 107.8C1039.69 106.416 1036.63 104.45 1034.08 101.902C1031.54 99.2803 1029.57 96.1493 1028.19 92.5085C1026.8 88.8677 1026.11 84.7901 1026.11 80.2755ZM1147.6 108.455H1132.86V100.591H1132.53C1130.56 103.868 1128.02 106.234 1124.88 107.691C1121.75 109.147 1118.55 109.875 1115.27 109.875C1111.12 109.875 1107.7 109.329 1105.01 108.237C1102.38 107.144 1100.31 105.615 1098.78 103.649C1097.25 101.61 1096.16 99.1711 1095.5 96.3313C1094.92 93.4187 1094.63 90.2148 1094.63 86.7197V51.9867H1110.14V83.8799C1110.14 88.5401 1110.87 92.0352 1112.32 94.3653C1113.78 96.6226 1116.37 97.7512 1120.08 97.7512C1124.3 97.7512 1127.36 96.5134 1129.25 94.0376C1131.15 91.4891 1132.09 87.3386 1132.09 81.5862V51.9867H1147.6V108.455ZM1187.88 98.2973C1190.43 98.2973 1192.54 97.7876 1194.22 96.7682C1195.96 95.7488 1197.35 94.4381 1198.37 92.8362C1199.46 91.1614 1200.22 89.2318 1200.66 87.0474C1201.1 84.8629 1201.32 82.642 1201.32 80.3847C1201.32 78.1275 1201.06 75.9066 1200.55 73.7221C1200.11 71.5377 1199.35 69.6081 1198.26 67.9333C1197.17 66.1857 1195.75 64.8023 1194 63.7828C1192.32 62.6906 1190.25 62.1445 1187.77 62.1445C1185.22 62.1445 1183.08 62.6906 1181.33 63.7828C1179.65 64.8023 1178.27 66.1493 1177.18 67.8241C1176.16 69.4988 1175.43 71.4285 1174.99 73.6129C1174.56 75.7974 1174.34 78.0547 1174.34 80.3847C1174.34 82.642 1174.56 84.8629 1174.99 87.0474C1175.5 89.2318 1176.27 91.1614 1177.29 92.8362C1178.38 94.4381 1179.8 95.7488 1181.55 96.7682C1183.29 97.7876 1185.41 98.2973 1187.88 98.2973ZM1159.37 51.9867H1174.12V59.1955H1174.34C1176.23 56.1372 1178.63 53.9164 1181.55 52.5329C1184.46 51.1494 1187.66 50.4576 1191.16 50.4576C1195.6 50.4576 1199.42 51.295 1202.63 52.9698C1205.83 54.6445 1208.49 56.8654 1210.6 59.6324C1212.71 62.3993 1214.28 65.6396 1215.3 69.3532C1216.32 72.994 1216.83 76.8168 1216.83 80.8216C1216.83 84.608 1216.32 88.2488 1215.3 91.7439C1214.28 95.2391 1212.71 98.3337 1210.6 101.028C1208.56 103.722 1205.98 105.87 1202.84 107.472C1199.79 109.074 1196.18 109.875 1192.03 109.875C1188.54 109.875 1185.3 109.183 1182.31 107.8C1179.4 106.343 1177 104.232 1175.1 101.465H1174.88V128.224H1159.37V51.9867Z" fill="black"/>
</svg>
