<?xml version="1.0" encoding="UTF-8"?>
<svg id="Logo_Asset" data-name="Logo Asset" xmlns="http://www.w3.org/2000/svg" viewBox="0 0 1079.18 1000">
  <defs>
    <style>
      .cls-1 {
        fill: #3bf;
      }
    </style>
  </defs>
  <path d="M144.81,361.25C52.73,361.3.16,306.78.11,211.19l-.05-96.59-.06-107.6,57.55-.03.06,107.6.05,99.09c.03,57.05,29.58,95.57,87.13,95.54,57.55-.03,86.56-38.58,86.53-95.63l-.05-99.09-.06-107.6,57.55-.03.06,107.6.05,96.59c.05,95.59-51.97,150.16-144.05,150.21ZM575.4,354.52l-65.06.03-102.74-288.2h-1.5s.09,180.66.09,180.66l.06,107.6-55.05.03-.06-107.6-.07-132.62-.06-107.6,91.58-.05,101.24,285.2h1.5S646.79,6.67,646.79,6.67l87.08-.05.06,107.6.07,132.62.06,107.6-55.05.03-.06-107.6-.09-176.66h-1.5s-101.95,284.31-101.95,284.31ZM979.87,50.54c-86.58.04-141.6,54.12-141.56,133.19.04,80.57,53.62,129.59,133.69,129.55,16.01,0,31.03-2.02,47.03-6.53l-.02-33.53-.06-107.6,57.55-.03.06,107.6.03,57.55c-30.02,18.03-69.05,30.06-113.09,30.09-111.6.06-185.71-73.97-185.76-177.56C777.7,76.67,857.73.06,971.33,0c45.04-.02,80.08,10.47,107.61,26.97l.03,49.54c-28.53-15.5-60.07-25.99-99.1-25.97Z"/>
  <g>
    <rect class="cls-1" x=".24" y="434.57" width="425.49" height="52.24"/>
    <rect class="cls-1" x="44.09" y="597.9" width="425.49" height="52.25" transform="translate(-277.8 212.28) rotate(-30.03)"/>
    <rect class="cls-1" x="163.74" y="717.43" width="425.49" height="52.24" transform="translate(-455.71 698.25) rotate(-60.03)"/>
    <rect class="cls-1" x="513.75" y="574.5" width="52.24" height="425.49"/>
    <rect class="cls-1" x="677.09" y="530.64" width="52.24" height="425.49" transform="translate(-277.63 451.71) rotate(-30.03)"/>
    <rect class="cls-1" x="796.61" y="410.99" width="52.25" height="425.49" transform="translate(-128.6 1024.86) rotate(-60.03)"/>
    <rect class="cls-1" x="653.68" y="434.23" width="425.49" height="52.24"/>
  </g>
</svg>