<svg width="1108" height="147" viewBox="0 0 1108 147" fill="none" xmlns="http://www.w3.org/2000/svg">
<path d="M104.274 78.965C104.274 89.5232 101.325 97.3873 95.4267 102.557C89.5287 107.654 81.3734 110.203 70.9608 110.203C60.4025 110.203 52.2108 107.654 46.3856 102.557C40.6331 97.4601 37.7569 89.596 37.7569 78.965V30.4699H54.905V78.965C54.905 81.0766 55.087 83.1519 55.4511 85.1907C55.8152 87.2295 56.5797 89.0499 57.7448 90.6518C58.9098 92.181 60.5117 93.4552 62.5506 94.4746C64.6622 95.4212 67.4656 95.8945 70.9608 95.8945C77.0772 95.8945 81.3005 94.5475 83.6306 91.8533C85.9607 89.0863 87.1258 84.7902 87.1258 78.965V30.4699H104.274V78.965ZM117.404 51.9869H132.149V59.8509H132.476C134.442 56.5742 136.991 54.2077 140.122 52.7514C143.253 51.2223 146.457 50.4577 149.734 50.4577C153.884 50.4577 157.27 51.0403 159.891 52.2053C162.586 53.2975 164.697 54.8631 166.226 56.9019C167.755 58.8679 168.811 61.3072 169.394 64.2199C170.049 67.0597 170.377 70.2271 170.377 73.7223V108.455H154.867V76.5621C154.867 71.9019 154.139 68.4431 152.683 66.1859C151.226 63.8558 148.641 62.6907 144.928 62.6907C140.705 62.6907 137.646 63.965 135.753 66.5135C133.86 68.9893 132.913 73.1033 132.913 78.8557V108.455H117.404V51.9869ZM198.095 43.249H182.585V30.4699H198.095V43.249ZM182.585 51.9869H198.095V108.455H182.585V51.9869ZM229.967 51.9869H241.327V62.3631H229.967V90.3242C229.967 92.9455 230.404 94.6931 231.278 95.5669C232.152 96.4407 233.899 96.8776 236.521 96.8776C237.395 96.8776 238.232 96.8411 239.033 96.7683C239.834 96.6955 240.598 96.5863 241.327 96.4407V108.455C240.016 108.674 238.56 108.819 236.958 108.892C235.356 108.965 233.79 109.001 232.261 109.001C229.858 109.001 227.564 108.819 225.38 108.455C223.268 108.164 221.375 107.545 219.7 106.598C218.098 105.652 216.824 104.305 215.878 102.557C214.931 100.81 214.458 98.5159 214.458 95.6761V62.3631H205.065V51.9869H214.458V35.0573H229.967V51.9869ZM286.716 74.1592C285.987 70.2271 284.677 67.2417 282.784 65.2029C280.963 63.164 278.16 62.1446 274.373 62.1446C271.898 62.1446 269.822 62.5815 268.148 63.4553C266.546 64.2563 265.235 65.2757 264.216 66.5135C263.269 67.7514 262.577 69.0621 262.14 70.4456C261.776 71.8291 261.558 73.0669 261.485 74.1592H286.716ZM261.485 83.9892C261.703 89.0135 262.978 92.6543 265.308 94.9115C267.638 97.1688 270.987 98.2975 275.356 98.2975C278.487 98.2975 281.182 97.5329 283.439 96.0038C285.696 94.4018 287.08 92.7271 287.589 90.9795H301.242C299.058 97.7513 295.708 102.594 291.194 105.506C286.679 108.419 281.218 109.875 274.81 109.875C270.369 109.875 266.364 109.183 262.796 107.8C259.228 106.344 256.206 104.305 253.73 101.683C251.254 99.062 249.325 95.931 247.941 92.2902C246.631 88.6494 245.975 84.6446 245.975 80.2756C245.975 76.0524 246.667 72.1203 248.051 68.4796C249.434 64.8388 251.4 61.7077 253.949 59.0864C256.497 56.3922 259.519 54.2806 263.014 52.7514C266.582 51.2223 270.514 50.4577 274.81 50.4577C279.616 50.4577 283.803 51.4043 287.371 53.2976C290.939 55.1179 293.851 57.5937 296.109 60.7247C298.439 63.8558 300.114 67.4237 301.133 71.4286C302.152 75.4334 302.517 79.6203 302.225 83.9892H261.485ZM351.509 80.0572C351.509 77.7271 351.29 75.5062 350.853 73.3946C350.417 71.2101 349.652 69.3169 348.56 67.715C347.54 66.0402 346.193 64.6932 344.518 63.6737C342.844 62.6543 340.732 62.1446 338.184 62.1446C335.635 62.1446 333.487 62.6543 331.739 63.6737C329.992 64.6932 328.572 66.0402 327.48 67.715C326.46 69.3897 325.696 71.3194 325.186 73.5038C324.749 75.6155 324.531 77.8363 324.531 80.1664C324.531 82.3509 324.785 84.5353 325.295 86.7198C325.805 88.9043 326.606 90.8703 327.698 92.6179C328.863 94.2926 330.283 95.6761 331.958 96.7683C333.705 97.7877 335.781 98.2975 338.184 98.2975C340.732 98.2975 342.844 97.7877 344.518 96.7683C346.266 95.7489 347.65 94.4018 348.669 92.7271C349.688 90.9795 350.417 89.0135 350.853 86.829C351.29 84.6446 351.509 82.3873 351.509 80.0572ZM351.727 101.246H351.509C349.688 104.305 347.285 106.526 344.3 107.909C341.387 109.22 338.074 109.875 334.361 109.875C330.137 109.875 326.424 109.074 323.22 107.472C320.016 105.797 317.358 103.577 315.247 100.81C313.208 97.9698 311.642 94.7295 310.55 91.0887C309.531 87.448 309.021 83.6616 309.021 79.7295C309.021 75.9431 309.531 72.3024 310.55 68.8072C311.642 65.2393 313.208 62.1082 315.247 59.414C317.358 56.7199 319.98 54.5718 323.111 52.9699C326.242 51.2951 329.883 50.4577 334.033 50.4577C337.383 50.4577 340.55 51.1859 343.535 52.6422C346.594 54.0257 348.997 56.1009 350.744 58.8679H350.963V30.4699H366.472V108.455H351.727V101.246ZM410.232 30.4699H434.371L452.611 84.0985H452.829L470.087 30.4699H494.225V108.455H478.169V53.1883H477.951L458.837 108.455H445.621L426.507 53.7344H426.288V108.455H410.232V30.4699ZM545.694 74.1592C544.966 70.2271 543.655 67.2417 541.762 65.2029C539.941 63.164 537.138 62.1446 533.352 62.1446C530.876 62.1446 528.801 62.5815 527.126 63.4553C525.524 64.2563 524.213 65.2757 523.194 66.5135C522.247 67.7514 521.555 69.0621 521.119 70.4456C520.754 71.8291 520.536 73.0669 520.463 74.1592H545.694ZM520.463 83.9892C520.682 89.0135 521.956 92.6543 524.286 94.9115C526.616 97.1688 529.966 98.2975 534.335 98.2975C537.466 98.2975 540.16 97.5329 542.417 96.0038C544.674 94.4018 546.058 92.7271 546.568 90.9795H560.22C558.036 97.7513 554.686 102.594 550.172 105.506C545.657 108.419 540.196 109.875 533.788 109.875C529.347 109.875 525.342 109.183 521.774 107.8C518.206 106.344 515.184 104.305 512.708 101.683C510.233 99.062 508.303 95.931 506.92 92.2902C505.609 88.6494 504.954 84.6446 504.954 80.2756C504.954 76.0524 505.645 72.1203 507.029 68.4796C508.412 64.8388 510.378 61.7077 512.927 59.0864C515.475 56.3922 518.497 54.2806 521.992 52.7514C525.56 51.2223 529.492 50.4577 533.788 50.4577C538.594 50.4577 542.781 51.4043 546.349 53.2976C549.917 55.1179 552.83 57.5937 555.087 60.7247C557.417 63.8558 559.092 67.4237 560.111 71.4286C561.131 75.4334 561.495 79.6203 561.203 83.9892H520.463ZM610.487 80.0572C610.487 77.7271 610.268 75.5062 609.832 73.3946C609.395 71.2101 608.63 69.3169 607.538 67.715C606.518 66.0402 605.171 64.6932 603.497 63.6737C601.822 62.6543 599.71 62.1446 597.162 62.1446C594.613 62.1446 592.465 62.6543 590.718 63.6737C588.97 64.6932 587.55 66.0402 586.458 67.715C585.438 69.3897 584.674 71.3194 584.164 73.5038C583.727 75.6155 583.509 77.8363 583.509 80.1664C583.509 82.3509 583.764 84.5353 584.273 86.7198C584.783 88.9043 585.584 90.8703 586.676 92.6179C587.841 94.2926 589.261 95.6761 590.936 96.7683C592.684 97.7877 594.759 98.2975 597.162 98.2975C599.71 98.2975 601.822 97.7877 603.497 96.7683C605.244 95.7489 606.628 94.4018 607.647 92.7271C608.666 90.9795 609.395 89.0135 609.832 86.829C610.268 84.6446 610.487 82.3873 610.487 80.0572ZM610.705 101.246H610.487C608.666 104.305 606.264 106.526 603.278 107.909C600.366 109.22 597.052 109.875 593.339 109.875C589.116 109.875 585.402 109.074 582.198 107.472C578.994 105.797 576.336 103.577 574.225 100.81C572.186 97.9698 570.62 94.7295 569.528 91.0887C568.509 87.448 567.999 83.6616 567.999 79.7295C567.999 75.9431 568.509 72.3024 569.528 68.8072C570.62 65.2393 572.186 62.1082 574.225 59.414C576.336 56.7199 578.958 54.5718 582.089 52.9699C585.22 51.2951 588.861 50.4577 593.011 50.4577C596.361 50.4577 599.528 51.1859 602.514 52.6422C605.572 54.0257 607.975 56.1009 609.722 58.8679H609.941V30.4699H625.45V108.455H610.705V101.246ZM653.12 43.249H637.61V30.4699H653.12V43.249ZM637.61 51.9869H653.12V108.455H637.61V51.9869ZM664.677 69.3533C664.895 65.7126 665.805 62.6907 667.407 60.2878C669.009 57.8849 671.048 55.9553 673.524 54.499C676 53.0427 678.767 52.0233 681.825 51.4408C684.956 50.7854 688.087 50.4577 691.218 50.4577C694.058 50.4577 696.934 50.6762 699.847 51.1131C702.759 51.4772 705.417 52.2417 707.82 53.4068C710.223 54.5718 712.189 56.2102 713.718 58.3218C715.247 60.3606 716.012 63.0912 716.012 66.5135V95.8945C716.012 98.4431 716.157 100.882 716.449 103.212C716.74 105.543 717.25 107.29 717.978 108.455H702.25C701.958 107.581 701.703 106.708 701.485 105.834C701.339 104.887 701.23 103.941 701.157 102.994C698.682 105.543 695.769 107.327 692.42 108.346C689.07 109.365 685.648 109.875 682.153 109.875C679.458 109.875 676.946 109.547 674.616 108.892C672.286 108.237 670.247 107.217 668.5 105.834C666.752 104.45 665.369 102.703 664.349 100.591C663.403 98.4795 662.929 95.9674 662.929 93.0547C662.929 89.8509 663.475 87.2295 664.568 85.1907C665.733 83.079 667.189 81.4043 668.937 80.1664C670.757 78.9286 672.796 78.0184 675.053 77.4358C677.383 76.7805 679.713 76.2708 682.043 75.9067C684.373 75.5426 686.667 75.2514 688.924 75.0329C691.182 74.8145 693.184 74.4868 694.932 74.0499C696.679 73.613 698.063 72.9941 699.082 72.1931C700.102 71.3194 700.575 70.0815 700.502 68.4796C700.502 66.8048 700.211 65.4941 699.628 64.5475C699.119 63.5281 698.39 62.7635 697.444 62.2538C696.57 61.6713 695.514 61.3072 694.276 61.1616C693.111 60.9432 691.837 60.8339 690.453 60.8339C687.395 60.8339 684.992 61.4893 683.245 62.8C681.497 64.1106 680.478 66.2951 680.187 69.3533H664.677ZM700.502 80.8218C699.847 81.4043 699.009 81.8776 697.99 82.2417C697.043 82.5329 695.987 82.7878 694.822 83.0062C693.73 83.2247 692.565 83.4067 691.327 83.5523C690.089 83.698 688.852 83.88 687.614 84.0985C686.449 84.3169 685.284 84.6082 684.119 84.9722C683.026 85.3363 682.043 85.846 681.17 86.5014C680.369 87.0839 679.713 87.8484 679.204 88.795C678.694 89.7416 678.439 90.9431 678.439 92.3994C678.439 93.7829 678.694 94.9479 679.204 95.8945C679.713 96.8411 680.405 97.6057 681.279 98.1882C682.153 98.6979 683.172 99.062 684.337 99.2805C685.502 99.4989 686.704 99.6081 687.941 99.6081C691 99.6081 693.366 99.0984 695.041 98.079C696.716 97.0596 697.953 95.8581 698.754 94.4746C699.555 93.0183 700.029 91.562 700.174 90.1057C700.393 88.6494 700.502 87.4844 700.502 86.6106V80.8218ZM816.447 99.6081C813.388 103.54 810.002 106.307 806.289 107.909C802.575 109.438 798.825 110.203 795.039 110.203C789.068 110.203 783.68 109.183 778.874 107.145C774.141 105.033 770.136 102.157 766.859 98.5159C763.583 94.8751 761.07 90.6154 759.323 85.7368C757.575 80.7854 756.702 75.4698 756.702 69.7902C756.702 63.965 757.575 58.5767 759.323 53.6252C761.07 48.601 763.583 44.232 766.859 40.5184C770.136 36.8049 774.141 33.8922 778.874 31.7806C783.68 29.669 789.068 28.6131 795.039 28.6131C799.044 28.6131 802.903 29.2321 806.617 30.4699C810.403 31.635 813.789 33.3825 816.774 35.7126C819.833 38.0427 822.345 40.9189 824.311 44.3413C826.277 47.7636 827.478 51.6956 827.915 56.1373H811.532C810.512 51.7684 808.546 48.4917 805.634 46.3073C802.721 44.1228 799.189 43.0306 795.039 43.0306C791.18 43.0306 787.903 43.7951 785.209 45.3243C782.515 46.7806 780.33 48.783 778.655 51.3315C776.981 53.8073 775.743 56.6471 774.942 59.8509C774.214 63.0548 773.85 66.3679 773.85 69.7902C773.85 73.0669 774.214 76.2708 774.942 79.4019C775.743 82.4601 776.981 85.2271 778.655 87.7028C780.33 90.1785 782.515 92.181 785.209 93.7101C787.903 95.1664 791.18 95.8945 795.039 95.8945C800.718 95.8945 805.087 94.4746 808.146 91.6348C811.277 88.7222 813.097 84.5353 813.607 79.0742H796.35V66.2951H829.116V108.455H818.194L816.447 99.6081ZM841.326 51.9869H856.072V62.4723H856.29C857.018 60.7247 858.001 59.1228 859.239 57.6665C860.477 56.1373 861.897 54.8631 863.499 53.8437C865.101 52.7514 866.812 51.9141 868.632 51.3315C870.453 50.749 872.346 50.4577 874.312 50.4577C875.331 50.4577 876.46 50.6398 877.698 51.0039V65.4213C876.97 65.2757 876.096 65.1665 875.076 65.0936C874.057 64.948 873.074 64.8752 872.127 64.8752C869.287 64.8752 866.885 65.3485 864.919 66.2951C862.953 67.2417 861.351 68.5524 860.113 70.2271C858.948 71.8291 858.11 73.7223 857.601 75.9067C857.091 78.0912 856.836 80.4577 856.836 83.0062V108.455H841.326V51.9869ZM895.621 80.2756C895.621 82.5329 895.839 84.7538 896.276 86.9383C896.713 89.0499 897.441 90.9795 898.46 92.7271C899.553 94.4018 900.972 95.7489 902.72 96.7683C904.468 97.7877 906.652 98.2975 909.273 98.2975C911.895 98.2975 914.079 97.7877 915.827 96.7683C917.647 95.7489 919.067 94.4018 920.087 92.7271C921.179 90.9795 921.943 89.0499 922.38 86.9383C922.817 84.7538 923.036 82.5329 923.036 80.2756C923.036 78.0184 922.817 75.7975 922.38 73.613C921.943 71.4286 921.179 69.499 920.087 67.8242C919.067 66.1495 917.647 64.8024 915.827 63.783C914.079 62.6907 911.895 62.1446 909.273 62.1446C906.652 62.1446 904.468 62.6907 902.72 63.783C900.972 64.8024 899.553 66.1495 898.46 67.8242C897.441 69.499 896.713 71.4286 896.276 73.613C895.839 75.7975 895.621 78.0184 895.621 80.2756ZM880.111 80.2756C880.111 75.7611 880.803 71.6834 882.186 68.0427C883.57 64.3291 885.536 61.198 888.084 58.6495C890.633 56.0281 893.691 54.0257 897.259 52.6422C900.827 51.1859 904.832 50.4577 909.273 50.4577C913.715 50.4577 917.72 51.1859 921.288 52.6422C924.929 54.0257 928.023 56.0281 930.572 58.6495C933.12 61.198 935.086 64.3291 936.47 68.0427C937.853 71.6834 938.545 75.7611 938.545 80.2756C938.545 84.7902 937.853 88.8679 936.47 92.5086C935.086 96.1494 933.12 99.2805 930.572 101.902C928.023 104.45 924.929 106.416 921.288 107.8C917.72 109.183 913.715 109.875 909.273 109.875C904.832 109.875 900.827 109.183 897.259 107.8C893.691 106.416 890.633 104.45 888.084 101.902C885.536 99.2805 883.57 96.1494 882.186 92.5086C880.803 88.8679 880.111 84.7902 880.111 80.2756ZM1001.6 108.455H986.858V100.591H986.53C984.564 103.868 982.015 106.234 978.884 107.691C975.753 109.147 972.549 109.875 969.273 109.875C965.122 109.875 961.7 109.329 959.006 108.237C956.384 107.145 954.309 105.615 952.78 103.649C951.251 101.611 950.159 99.1712 949.503 96.3314C948.921 93.4188 948.63 90.2149 948.63 86.7198V51.9869H964.139V83.88C964.139 88.5402 964.867 92.0353 966.324 94.3654C967.78 96.6227 970.365 97.7513 974.079 97.7513C978.302 97.7513 981.36 96.5135 983.253 94.0378C985.146 91.4892 986.093 87.3387 986.093 81.5863V51.9869H1001.6V108.455ZM1041.88 98.2975C1044.43 98.2975 1046.54 97.7877 1048.22 96.7683C1049.96 95.7489 1051.35 94.4382 1052.37 92.8363C1053.46 91.1615 1054.22 89.2319 1054.66 87.0475C1055.1 84.863 1055.32 82.6421 1055.32 80.3849C1055.32 78.1276 1055.06 75.9067 1054.55 73.7223C1054.11 71.5378 1053.35 69.6082 1052.26 67.9334C1051.17 66.1859 1049.75 64.8024 1048 63.783C1046.32 62.6907 1044.25 62.1446 1041.77 62.1446C1039.22 62.1446 1037.08 62.6907 1035.33 63.783C1033.65 64.8024 1032.27 66.1495 1031.18 67.8242C1030.16 69.499 1029.43 71.4286 1028.99 73.613C1028.56 75.7975 1028.34 78.0548 1028.34 80.3849C1028.34 82.6421 1028.56 84.863 1028.99 87.0475C1029.5 89.2319 1030.27 91.1615 1031.29 92.8363C1032.38 94.4382 1033.8 95.7489 1035.55 96.7683C1037.29 97.7877 1039.41 98.2975 1041.88 98.2975ZM1013.37 51.9869H1028.12V59.1956H1028.34C1030.23 56.1373 1032.63 53.9165 1035.55 52.533C1038.46 51.1495 1041.66 50.4577 1045.16 50.4577C1049.6 50.4577 1053.42 51.2951 1056.63 52.9699C1059.83 54.6446 1062.49 56.8655 1064.6 59.6325C1066.71 62.3995 1068.28 65.6398 1069.3 69.3533C1070.32 72.9941 1070.83 76.8169 1070.83 80.8218C1070.83 84.6082 1070.32 88.2489 1069.3 91.7441C1068.28 95.2392 1066.71 98.3339 1064.6 101.028C1062.56 103.722 1059.98 105.87 1056.84 107.472C1053.79 109.074 1050.18 109.875 1046.03 109.875C1042.54 109.875 1039.3 109.183 1036.31 107.8C1033.4 106.344 1031 104.232 1029.1 101.465H1028.88V128.225H1013.37V51.9869Z" fill="#104DA3"/>
</svg>
