<svg width="1632" height="348" viewBox="0 0 1632 348" fill="none" xmlns="http://www.w3.org/2000/svg">
<g clip-path="url(#clip0_57_3)">
<rect x="1130.15" y="116.861" width="362.311" height="115.987" fill="black"/>
<path d="M1253.76 153.441L1237.38 202.861H1223.31L1213.02 170.031L1202.8 202.861H1188.73L1172.21 153.441H1186.63L1196.22 184.731L1205.74 153.441H1220.37L1229.82 184.591L1239.41 153.441H1253.76ZM1290.42 193.411H1267.04L1263.4 202.861H1248.84L1268.86 153.441H1288.53L1308.55 202.861H1294.06L1290.42 193.411ZM1286.64 183.401L1278.8 162.891H1278.66L1270.82 183.401H1286.64ZM1315.68 164.431H1302.87V153.441H1342.21V164.431H1329.4V202.861H1315.68V164.431ZM1372.48 204.331C1366.04 204.331 1360.54 203.141 1355.96 200.761C1351.44 198.335 1348.15 194.811 1346.09 190.191C1344.55 186.598 1343.78 182.585 1343.78 178.151C1343.78 173.671 1344.55 169.681 1346.09 166.181C1348.15 161.608 1351.46 158.108 1356.03 155.681C1360.65 153.208 1366.14 151.971 1372.48 151.971C1376.68 151.971 1380.56 152.555 1384.1 153.721C1387.65 154.888 1390.66 156.591 1393.13 158.831C1395.19 160.651 1396.75 162.798 1397.82 165.271C1398.94 167.745 1399.57 170.428 1399.71 173.321H1385.15C1385.01 171.968 1384.64 170.731 1384.03 169.611C1383.47 168.445 1382.73 167.441 1381.79 166.601C1379.55 164.548 1376.38 163.521 1372.27 163.521C1369.24 163.521 1366.67 164.105 1364.57 165.271C1362.47 166.391 1360.93 168.048 1359.95 170.241C1359.49 171.268 1359.14 172.435 1358.9 173.741C1358.67 175.001 1358.55 176.471 1358.55 178.151C1358.55 181.418 1359 184.055 1359.88 186.061C1360.86 188.301 1362.43 189.981 1364.57 191.101C1366.77 192.221 1369.36 192.781 1372.34 192.781C1374.4 192.781 1376.26 192.525 1377.94 192.011C1379.62 191.451 1381.05 190.635 1382.21 189.561C1383.1 188.768 1383.8 187.835 1384.31 186.761C1384.87 185.641 1385.2 184.475 1385.29 183.261H1399.85C1399.76 186.108 1399.15 188.721 1398.03 191.101C1396.96 193.481 1395.42 195.581 1393.41 197.401C1390.94 199.641 1387.88 201.368 1384.24 202.581C1380.6 203.748 1376.68 204.331 1372.48 204.331ZM1405.63 153.441H1419.35V172.551H1442.03V153.441H1455.75V202.861H1442.03V183.541H1419.35V202.861H1405.63V153.441Z" fill="white"/>
<path d="M91.02 98.5118H158.47C175.443 98.5118 189.63 101.552 201.03 107.632C212.557 113.585 220.853 122.389 225.92 134.042C229.973 143.162 232 153.675 232 165.582C232 178.122 229.973 188.699 225.92 197.312C220.727 208.965 212.367 217.769 200.84 223.722C189.44 229.675 175.317 232.652 158.47 232.652H91.02V98.5118ZM154.29 202.062C163.283 202.062 170.567 200.605 176.14 197.692C181.84 194.779 186.02 190.472 188.68 184.772C190.833 179.959 191.91 173.562 191.91 165.582C191.91 157.729 190.77 151.269 188.49 146.202C185.83 140.502 181.713 136.259 176.14 133.472C170.567 130.559 163.283 129.102 154.29 129.102H128.26V202.062H154.29ZM254.629 127.202C251.209 127.202 248.106 126.505 245.319 125.112C242.533 123.719 240.379 121.755 238.859 119.222C237.339 116.562 236.579 113.585 236.579 110.292C236.579 106.999 237.339 104.085 238.859 101.552C240.506 98.8918 242.659 96.8652 245.319 95.4718C248.106 93.9518 251.209 93.1919 254.629 93.1919C258.049 93.1919 261.089 93.9518 263.749 95.4718C266.536 96.8652 268.689 98.8918 270.209 101.552C271.856 104.085 272.679 106.999 272.679 110.292C272.679 113.585 271.856 116.562 270.209 119.222C268.689 121.755 266.536 123.719 263.749 125.112C261.089 126.505 258.049 127.202 254.629 127.202ZM236.959 137.462H271.919V232.652H236.959V137.462ZM393.571 160.262C396.865 167.482 398.511 175.715 398.511 184.962C398.511 194.462 396.865 202.695 393.571 209.662C389.898 217.895 384.261 224.292 376.661 228.852C369.188 233.412 360.321 235.692 350.061 235.692C342.841 235.692 336.255 234.489 330.301 232.082C324.475 229.675 319.535 226.129 315.481 221.442V271.222H280.521V137.462H314.531V149.622C318.585 144.555 323.588 140.755 329.541 138.222C335.621 135.562 342.461 134.232 350.061 134.232C360.321 134.232 369.188 136.512 376.661 141.072C384.261 145.632 389.898 152.029 393.571 160.262ZM359.561 197.502C360.955 194.589 361.651 190.409 361.651 184.962C361.651 179.389 360.955 175.145 359.561 172.232C357.788 168.432 355.065 165.582 351.391 163.682C347.718 161.782 343.348 160.832 338.281 160.832C331.315 160.832 325.678 162.795 321.371 166.722C317.065 170.649 314.911 176.222 314.911 183.442V186.482C314.911 191.295 315.861 195.412 317.761 198.832C319.788 202.252 322.575 204.849 326.121 206.622C329.668 208.269 333.721 209.092 338.281 209.092C343.348 209.092 347.718 208.142 351.391 206.242C355.065 204.215 357.788 201.302 359.561 197.502ZM401.642 98.5118H436.602V232.652H401.642V98.5118ZM500.494 235.692C486.56 235.692 474.654 233.159 464.774 228.092C455.02 223.025 448.054 215.679 443.874 206.052C441.087 199.972 439.694 192.942 439.694 184.962C439.694 176.982 441.087 169.952 443.874 163.872C448.054 154.245 455.02 146.899 464.774 141.832C474.654 136.765 486.56 134.232 500.494 134.232C514.427 134.232 526.27 136.765 536.024 141.832C545.777 146.772 552.744 153.929 556.924 163.302C559.837 169.889 561.294 177.109 561.294 184.962C561.294 192.942 559.837 200.225 556.924 206.812C552.744 216.185 545.777 223.342 536.024 228.282C526.27 233.222 514.427 235.692 500.494 235.692ZM500.494 209.282C505.94 209.282 510.5 208.332 514.174 206.432C517.974 204.532 520.697 201.682 522.344 197.882C523.737 194.715 524.434 190.409 524.434 184.962C524.434 179.389 523.737 175.145 522.344 172.232C520.697 168.432 517.974 165.582 514.174 163.682C510.5 161.655 505.94 160.642 500.494 160.642C495.174 160.642 490.614 161.655 486.814 163.682C483.14 165.709 480.417 168.559 478.644 172.232C477.25 175.399 476.554 179.642 476.554 184.962C476.554 190.535 477.25 194.779 478.644 197.692C480.29 201.492 482.95 204.405 486.624 206.432C490.424 208.332 495.047 209.282 500.494 209.282ZM702.603 134.232C714.637 134.232 723.947 137.589 730.533 144.302C737.12 151.015 740.413 160.642 740.413 173.182V232.652H705.453V179.642C705.453 166.975 699.753 160.642 688.353 160.642C682.273 160.642 677.65 162.415 674.483 165.962C671.317 169.509 669.733 174.575 669.733 181.162V232.652H634.963V179.642C634.963 166.975 629.2 160.642 617.673 160.642C611.593 160.642 606.97 162.415 603.803 165.962C600.763 169.509 599.243 174.639 599.243 181.352V232.652H564.283V137.462H599.243V149.812C603.043 144.872 607.857 141.072 613.683 138.412C619.51 135.625 626.223 134.232 633.823 134.232C641.803 134.232 648.58 135.752 654.153 138.792C659.853 141.832 664.033 146.202 666.693 151.902C670.873 145.949 675.877 141.515 681.703 138.602C687.53 135.689 694.497 134.232 702.603 134.232ZM848.063 156.082C850.85 162.035 852.243 169.572 852.243 178.692V232.652H817.473V221.062C813.546 225.875 808.543 229.549 802.463 232.082C796.51 234.489 789.226 235.692 780.613 235.692C771.746 235.692 764.273 234.299 758.193 231.512C752.24 228.725 747.933 224.482 745.273 218.782C743.626 214.855 742.803 210.802 742.803 206.622C742.803 202.062 743.626 197.819 745.273 193.892C748.82 186.165 755.28 180.909 764.653 178.122C774.026 175.335 785.996 173.942 800.563 173.942H817.283V172.612C817.283 170.459 817.156 168.749 816.903 167.482C816.65 166.215 816.27 165.012 815.763 163.872C813.61 158.805 808.163 156.272 799.423 156.272C790.81 156.272 785.426 158.615 783.273 163.302C782.64 164.949 782.323 166.469 782.323 167.862H747.173C747.426 163.049 748.376 158.932 750.023 155.512C753.316 148.039 759.206 142.655 767.693 139.362C776.18 135.942 786.63 134.232 799.043 134.232C812.216 134.232 822.856 135.942 830.963 139.362C839.07 142.782 844.77 148.355 848.063 156.082ZM794.863 212.132C800.056 212.132 804.49 211.309 808.163 209.662C811.836 208.015 814.433 205.545 815.953 202.252C816.966 199.845 817.473 196.805 817.473 193.132V191.992H801.703C795.623 191.992 790.746 192.435 787.073 193.322C783.526 194.082 781.183 195.665 780.043 198.072C779.536 199.339 779.283 200.669 779.283 202.062C779.283 203.582 779.536 204.912 780.043 206.052C781.816 210.105 786.756 212.132 794.863 212.132ZM904.308 234.742C891.894 234.742 882.711 231.955 876.758 226.382C870.804 220.809 867.828 211.942 867.828 199.782V163.872H852.818V137.462H867.828V114.472H902.598V137.462H929.388V163.872H902.598V192.752C902.598 197.945 903.738 201.682 906.018 203.962C908.424 206.242 911.971 207.382 916.658 207.382C920.458 207.382 924.448 206.875 928.628 205.862V232.272C920.141 233.919 912.034 234.742 904.308 234.742ZM951.898 127.202C948.478 127.202 945.375 126.505 942.588 125.112C939.801 123.719 937.648 121.755 936.128 119.222C934.608 116.562 933.848 113.585 933.848 110.292C933.848 106.999 934.608 104.085 936.128 101.552C937.775 98.8918 939.928 96.8652 942.588 95.4718C945.375 93.9518 948.478 93.1919 951.898 93.1919C955.318 93.1919 958.358 93.9518 961.018 95.4718C963.805 96.8652 965.958 98.8918 967.478 101.552C969.125 104.085 969.948 106.999 969.948 110.292C969.948 113.585 969.125 116.562 967.478 119.222C965.958 121.755 963.805 123.719 961.018 125.112C958.358 126.505 955.318 127.202 951.898 127.202ZM934.228 137.462H969.188V232.652H934.228V137.462ZM1031.75 235.882C1018.7 235.882 1007.3 233.539 997.55 228.852C987.923 224.039 981.02 216.882 976.84 207.382C973.8 200.669 972.28 193.195 972.28 184.962C972.28 176.855 973.8 169.382 976.84 162.542C980.893 153.295 987.733 146.265 997.36 141.452C1006.99 136.639 1018.45 134.232 1031.75 134.232C1052.02 134.232 1067.66 139.299 1078.68 149.432C1086.41 156.272 1090.59 165.139 1091.22 176.032H1053.79C1053.41 172.105 1051.7 168.622 1048.66 165.582C1044.73 162.289 1039.16 160.642 1031.94 160.642C1027 160.642 1022.76 161.592 1019.21 163.492C1015.79 165.392 1013.26 168.179 1011.61 171.852C1010.72 173.499 1010.09 175.335 1009.71 177.362C1009.46 179.389 1009.33 181.922 1009.33 184.962C1009.33 187.875 1009.46 190.345 1009.71 192.372C1010.09 194.399 1010.72 196.235 1011.61 197.882C1013.26 201.555 1015.79 204.405 1019.21 206.432C1022.76 208.332 1027 209.282 1031.94 209.282C1039.29 209.282 1044.86 207.572 1048.66 204.152C1050.18 202.759 1051.38 201.112 1052.27 199.212C1053.16 197.312 1053.73 195.285 1053.98 193.132H1091.6C1091.22 198.832 1089.95 203.962 1087.8 208.522C1085.77 212.955 1082.73 217.009 1078.68 220.682C1073.11 225.622 1066.33 229.422 1058.35 232.082C1050.5 234.615 1041.63 235.882 1031.75 235.882Z" fill="black"/>
</g>
<defs>
<clipPath id="clip0_57_3">
<rect width="1632" height="348" fill="white"/>
</clipPath>
</defs>
</svg>
