<svg width="858" height="230" viewBox="0 0 858 230" fill="none" xmlns="http://www.w3.org/2000/svg">
<path d="M830.925 89.9405C830.925 114.918 830.925 106.569 830.925 127.131H848.451C848.451 131.271 848.451 134.1 848.451 138.24C838.515 138.24 828.303 138.24 818.505 138.24V89.9405C822.645 89.9405 826.716 89.9405 830.925 89.9405Z" fill="#2C2869"/>
<path d="M800.157 138.24L797.328 132.168H778.284L775.455 138.24H763.38V136.446L785.115 89.3195H790.428L812.232 136.446V138.24H800.157ZM793.257 121.542L787.737 108.846L782.355 121.542H793.257Z" fill="#2C2869"/>
<path d="M752.735 138.309L728.378 114.504V138.24C724.1 138.24 719.822 138.24 715.613 138.24V89.7335H720.098L744.524 113.607V89.9405C748.733 89.9405 752.942 89.9405 757.151 89.9405V138.309H752.735Z" fill="#2C2869"/>
<path d="M706.327 114.159C706.327 147.624 656.785 147.624 656.785 114.159C656.785 80.7635 706.327 80.7635 706.327 114.159ZM669.481 114.159C669.481 131.685 693.7 131.685 693.7 114.159C693.7 96.7715 669.481 96.7715 669.481 114.159Z" fill="#2C2869"/>
<path d="M645.534 127.407H651.675C651.675 131.478 651.675 134.031 651.675 138.24C643.464 138.24 635.391 138.24 627.18 138.24C627.18 134.031 627.18 131.478 627.18 127.407H633.321V100.704H627.663C627.663 96.5645 627.663 94.0115 627.663 89.9405C635.529 89.9405 643.326 89.9405 651.192 89.9405C651.192 94.0115 651.192 96.5645 651.192 100.704H645.534V127.407Z" fill="#2C2869"/>
<path d="M598.533 100.98H586.665C586.665 97.2545 586.665 93.5975 586.665 89.9405H622.545C622.545 93.5975 622.545 97.2545 622.545 100.98H610.746V138.24C606.675 138.24 602.604 138.24 598.533 138.24V100.98Z" fill="#2C2869"/>
<path d="M575.704 138.24L572.875 132.168H553.831L551.003 138.24H538.927V136.446L560.663 89.3195H565.975L587.779 136.446V138.24H575.704ZM568.805 121.542L563.284 108.846L557.902 121.542H568.805Z" fill="#2C2869"/>
<path d="M528.283 138.309L503.926 114.504V138.24C499.648 138.24 495.37 138.24 491.161 138.24V89.7335H495.646L520.072 113.607V89.9405C524.281 89.9405 528.49 89.9405 532.699 89.9405V138.309H528.283Z" fill="#2C2869"/>
<path d="M474.241 121.128L483.694 136.446V138.24H469.894L461.614 124.026H455.197V138.24C451.057 138.24 446.848 138.24 442.846 138.24C442.846 122.163 442.846 106.086 442.846 89.9405C449.815 89.9405 456.991 89.9405 464.029 89.9405C483.004 90.0095 486.454 112.848 474.241 121.128ZM464.029 112.917C470.722 112.917 471.067 101.049 464.029 100.98C461.131 100.911 458.095 100.98 455.197 100.98C455.197 104.913 455.197 109.053 455.197 112.917H464.029Z" fill="#2C2869"/>
<path d="M431.695 89.9405C431.695 93.5285 431.695 97.2545 431.695 100.98C424.519 100.98 420.931 100.98 413.824 100.98V107.811H430.246C430.246 111.468 430.246 115.125 430.246 118.782H413.824C413.824 121.611 413.824 124.371 413.824 127.269C420.931 127.269 425.071 127.269 432.316 127.269C432.316 130.857 432.316 134.583 432.316 138.24C421 138.24 412.72 138.24 401.542 138.24C401.542 122.094 401.542 105.948 401.542 89.9405C412.72 89.9405 420.379 89.9405 431.695 89.9405Z" fill="#2C2869"/>
<path d="M369.903 100.98H358.035C358.035 97.2545 358.035 93.5975 358.035 89.9405H393.915C393.915 93.5975 393.915 97.2545 393.915 100.98H382.116V138.24C378.045 138.24 373.974 138.24 369.903 138.24V100.98Z" fill="#2C2869"/>
<path d="M346.08 138.309L321.723 114.504V138.24C317.445 138.24 313.167 138.24 308.958 138.24V89.7335H313.443L337.869 113.607V89.9405C342.078 89.9405 346.287 89.9405 350.496 89.9405V138.309H346.08Z" fill="#2C2869"/>
<path d="M294.739 127.407H300.88V138.24H276.385V127.407H282.526V100.704H276.868V89.9405H300.397V100.704H294.739V127.407Z" fill="#2C2869"/>
<path d="M697.459 183.377L707.224 172.737H709.464V197.307C707.329 197.307 705.194 197.307 703.059 197.307V186.387L697.844 191.847H697.144L691.964 186.387V197.307C689.829 197.307 687.694 197.307 685.559 197.307V172.737H687.869L697.459 183.377Z" fill="#2C2869"/>
<path d="M654.77 192.022C656.59 192.022 658.48 191.042 658.48 189.047V172.807C660.475 172.807 662.575 172.807 664.535 172.807V189.152C664.535 194.542 659.81 197.657 654.77 197.657C649.765 197.657 645.04 194.542 645.04 189.152V172.807C647 172.807 649.065 172.807 651.025 172.807V189.047C651.025 191.042 652.95 192.022 654.77 192.022Z" fill="#2C2869"/>
<path d="M621.653 188.627L626.448 196.397V197.307H619.448L615.248 190.097H611.993V197.307C609.893 197.307 607.758 197.307 605.728 197.307C605.728 189.152 605.728 180.997 605.728 172.807C609.263 172.807 612.903 172.807 616.473 172.807C626.098 172.842 627.848 184.427 621.653 188.627ZM616.473 184.462C619.868 184.462 620.043 178.442 616.473 178.407C615.003 178.372 613.463 178.407 611.993 178.407C611.993 180.402 611.993 182.502 611.993 184.462H616.473Z" fill="#2C2869"/>
<path d="M574.664 178.407H568.644C568.644 176.517 568.644 174.662 568.644 172.807H586.844C586.844 174.662 586.844 176.517 586.844 178.407H580.859V197.307C578.794 197.307 576.729 197.307 574.664 197.307V178.407Z" fill="#2C2869"/>
<path d="M527.025 185.057C527.06 176.727 533.36 172.527 539.59 172.527C544.665 172.527 550.16 175.292 551.105 181.837C548.97 181.837 547.08 181.837 544.945 181.837C544.07 179.352 542.215 178.232 539.59 178.232C535.915 178.232 533.5 180.997 533.5 185.057C533.5 188.662 535.88 191.812 539.59 191.847C542.25 191.847 544.385 190.517 545.05 187.892C547.15 187.892 549.075 187.892 551.21 187.892C550.3 194.822 544.805 197.552 539.59 197.552C533.36 197.587 527.06 193.387 527.025 185.057Z" fill="#2C2869"/>
<path d="M507.753 172.807C507.753 174.627 507.753 176.517 507.753 178.407C504.113 178.407 502.293 178.407 498.688 178.407V181.872H507.018C507.018 183.727 507.018 185.582 507.018 187.437H498.688C498.688 188.872 498.688 190.272 498.688 191.742C502.293 191.742 504.393 191.742 508.068 191.742C508.068 193.562 508.068 195.452 508.068 197.307C502.328 197.307 498.128 197.307 492.458 197.307C492.458 189.117 492.458 180.927 492.458 172.807C498.128 172.807 502.013 172.807 507.753 172.807Z" fill="#2C2869"/>
<path d="M459.372 197.307C457.272 197.307 455.172 197.307 453.107 197.307C453.107 189.152 453.107 180.997 453.107 172.807C456.642 172.807 460.282 172.807 463.887 172.807C475.612 172.842 475.612 191.042 463.887 191.042H459.372V197.307ZM463.852 185.407C467.282 185.407 467.492 178.442 463.852 178.407C462.382 178.372 460.807 178.407 459.372 178.407C459.372 180.402 459.372 183.412 459.372 185.407H463.852Z" fill="#2C2869"/>
<path d="M419.701 189.817C419.701 192.932 427.366 192.967 427.366 190.097C427.366 188.382 425.336 187.997 422.886 187.857C417.566 187.472 414.066 185.652 413.996 180.332C413.786 169.762 432.826 169.762 432.686 180.332C430.481 180.332 428.871 180.332 426.736 180.332C426.736 177.077 420.156 177.357 419.946 180.262C419.806 182.117 421.626 182.502 423.831 182.747C428.696 183.272 433.456 184.007 433.456 190.132C433.456 200.422 413.506 200.597 413.646 189.817C415.746 189.817 417.566 189.817 419.701 189.817Z" fill="#2C2869"/>
<path d="M112.864 143.228C118.125 140.191 124.853 141.993 127.891 147.254L158.81 200.807C161.847 206.068 160.044 212.796 154.783 215.834C149.522 218.871 142.794 217.068 139.757 211.807L108.838 158.254C105.8 152.993 107.603 146.266 112.864 143.228ZM174.386 33.7232C177.423 28.4621 184.151 26.6593 189.412 29.6969C194.673 32.7345 196.475 39.4621 193.438 44.7232L162.534 98.2496C159.497 103.511 152.769 105.314 147.508 102.276C142.247 99.2384 140.444 92.5107 143.481 87.2496L174.386 33.7232Z" fill="#66C2AD"/>
<path d="M83.7219 123.069C89.7971 123.069 94.7219 127.993 94.7219 134.069C94.7219 140.144 89.7971 145.069 83.7219 145.069H21.8958C15.8206 145.069 10.8958 140.144 10.8958 134.069C10.8958 127.993 15.8206 123.069 21.8958 123.069H83.7219ZM214.836 123.069C220.911 123.069 225.836 127.993 225.836 134.069C225.836 140.144 220.911 145.069 214.836 145.069H152.998C146.923 145.069 141.998 140.144 141.998 134.069C141.998 127.994 146.923 123.069 152.998 123.069H214.836Z" fill="#FDB709"/>
<path d="M147.502 124.524C152.763 121.486 159.491 123.289 162.528 128.55L193.437 182.087C196.475 187.349 194.672 194.076 189.411 197.114C184.15 200.151 177.423 198.348 174.386 193.087L143.476 139.55C140.438 134.289 142.241 127.561 147.502 124.524ZM74.1991 128.55C77.2367 123.289 83.9644 121.487 89.2255 124.524C94.4867 127.561 96.2893 134.289 93.2519 139.55L62.3466 193.081C59.309 198.342 52.5815 200.144 47.3202 197.107C42.059 194.069 40.2563 187.342 43.2939 182.081L74.1991 128.55ZM81.9472 10.98C87.2084 7.94242 93.936 9.74514 96.9736 15.0064L127.891 68.5552C130.928 73.8163 129.125 80.5439 123.864 83.5816C118.603 86.6191 111.875 84.8164 108.838 79.5552L77.9208 26.0064C74.8833 20.7452 76.686 14.0176 81.9472 10.98Z" fill="#EA1479"/>
<path d="M108.838 147.257C111.875 141.997 118.603 140.194 123.864 143.231C129.125 146.269 130.928 152.996 127.891 158.257L96.9736 211.807C93.936 217.068 87.2084 218.871 81.9472 215.834C76.686 212.796 74.8833 206.068 77.9208 200.807L108.838 147.257ZM214.838 81.7526C220.913 81.7527 225.838 86.6777 225.838 92.7526C225.838 98.8276 220.913 103.752 214.838 103.753H153.008C146.933 103.753 142.008 98.8277 142.008 92.7526C142.008 86.6776 146.933 81.7526 153.008 81.7526H214.838ZM47.3202 29.7067C52.5815 26.6691 59.3091 28.4718 62.3466 33.733L93.246 87.2526C96.2836 92.5138 94.4809 99.2414 89.2197 102.279C83.9585 105.316 77.2308 103.514 74.1933 98.2526L43.2939 44.733C40.2563 39.4718 42.059 32.7442 47.3202 29.7067Z" fill="#6559A8"/>
<path d="M139.753 15.0212C142.79 9.76027 149.517 7.95764 154.778 10.9949C160.04 14.0324 161.842 20.76 158.805 26.0212L127.887 79.574C124.849 84.835 118.121 86.6369 112.86 83.5993C107.599 80.5618 105.797 73.8351 108.834 68.574L139.753 15.0212Z" fill="#FDB709"/>
<path d="M83.7202 81.7498C89.7953 81.7498 94.7202 86.6746 94.7202 92.7498C94.7202 98.8249 89.7953 103.75 83.7202 103.75H21.9019C15.8267 103.75 10.9019 98.8249 10.9019 92.7498C10.9019 86.6746 15.8267 81.7498 21.9019 81.7498H83.7202Z" fill="#66C2AD"/>
</svg>
