<svg width="921" height="286" viewBox="0 0 921 286" fill="none" xmlns="http://www.w3.org/2000/svg">
<path d="M329.372 146.407H335.513V157.24H311.018V146.407H317.159V119.704H311.501V108.94H335.03V119.704H329.372V146.407ZM380.713 157.309L356.356 133.504V157.24C352.078 157.24 347.8 157.24 343.591 157.24V108.733H348.076L372.502 132.607V108.94C376.711 108.94 380.92 108.94 385.129 108.94V157.309H380.713ZM404.537 119.98H392.669C392.669 116.254 392.669 112.597 392.669 108.94H428.549C428.549 112.597 428.549 116.254 428.549 119.98H416.75V157.24C412.679 157.24 408.608 157.24 404.537 157.24V119.98ZM466.328 108.94C466.328 112.528 466.328 116.254 466.328 119.98C459.152 119.98 455.564 119.98 448.457 119.98V126.811H464.879C464.879 130.468 464.879 134.125 464.879 137.782H448.457C448.457 140.611 448.457 143.371 448.457 146.269C455.564 146.269 459.704 146.269 466.949 146.269C466.949 149.857 466.949 153.583 466.949 157.24C455.633 157.24 447.353 157.24 436.175 157.24C436.175 141.094 436.175 124.948 436.175 108.94C447.353 108.94 455.012 108.94 466.328 108.94ZM508.874 140.128L518.327 155.446V157.24H504.527L496.247 143.026H489.83V157.24C485.69 157.24 481.481 157.24 477.479 157.24C477.479 141.163 477.479 125.086 477.479 108.94C484.448 108.94 491.624 108.94 498.662 108.94C517.637 109.009 521.087 131.848 508.874 140.128ZM498.662 131.917C505.355 131.917 505.7 120.049 498.662 119.98C495.764 119.911 492.728 119.98 489.83 119.98C489.83 123.913 489.83 128.053 489.83 131.917H498.662ZM562.916 157.309L538.559 133.504V157.24C534.281 157.24 530.003 157.24 525.794 157.24V108.733H530.279L554.705 132.607V108.94C558.914 108.94 563.123 108.94 567.332 108.94V157.309H562.916ZM610.338 157.24L607.509 151.168H588.465L585.636 157.24H573.561V155.446L595.296 108.319H600.609L622.413 155.446V157.24H610.338ZM603.438 140.542L597.918 127.846L592.536 140.542H603.438ZM633.166 119.98H621.298C621.298 116.254 621.298 112.597 621.298 108.94H657.178C657.178 112.597 657.178 116.254 657.178 119.98H645.379V157.24C641.308 157.24 637.237 157.24 633.166 157.24V119.98ZM680.167 146.407H686.308C686.308 150.478 686.308 153.031 686.308 157.24C678.097 157.24 670.024 157.24 661.813 157.24C661.813 153.031 661.813 150.478 661.813 146.407H667.954V119.704H662.296C662.296 115.564 662.296 113.011 662.296 108.94C670.162 108.94 677.959 108.94 685.825 108.94C685.825 113.011 685.825 115.564 685.825 119.704H680.167V146.407ZM740.961 133.159C740.961 166.624 691.419 166.624 691.419 133.159C691.419 99.7632 740.961 99.7632 740.961 133.159ZM704.115 133.159C704.115 150.685 728.334 150.685 728.334 133.159C728.334 115.771 704.115 115.771 704.115 133.159ZM787.368 157.309L763.011 133.504V157.24C758.733 157.24 754.455 157.24 750.246 157.24V108.733H754.731L779.157 132.607V108.94C783.366 108.94 787.575 108.94 791.784 108.94V157.309H787.368ZM834.79 157.24L831.961 151.168H812.917L810.088 157.24H798.013V155.446L819.748 108.319H825.061L846.865 155.446V157.24H834.79ZM827.89 140.542L822.37 127.846L816.988 140.542H827.89ZM865.558 108.94C865.558 133.918 865.558 125.569 865.558 146.131H883.084C883.084 150.271 883.084 153.1 883.084 157.24C873.148 157.24 862.936 157.24 853.138 157.24V108.94C857.278 108.94 861.349 108.94 865.558 108.94Z" fill="black"/>
<path d="M454.334 208.817C454.334 211.932 461.999 211.967 461.999 209.097C461.999 207.382 459.969 206.997 457.519 206.857C452.199 206.472 448.699 204.652 448.629 199.332C448.419 188.762 467.459 188.762 467.319 199.332C465.114 199.332 463.504 199.332 461.369 199.332C461.369 196.077 454.789 196.357 454.579 199.262C454.439 201.117 456.259 201.502 458.464 201.747C463.329 202.272 468.089 203.007 468.089 209.132C468.089 219.422 448.139 219.597 448.279 208.817C450.379 208.817 452.199 208.817 454.334 208.817ZM494.005 216.307C491.905 216.307 489.805 216.307 487.74 216.307C487.74 208.152 487.74 199.997 487.74 191.807C491.275 191.807 494.915 191.807 498.52 191.807C510.245 191.842 510.245 210.042 498.52 210.042H494.005V216.307ZM498.485 204.407C501.915 204.407 502.125 197.442 498.485 197.407C497.015 197.372 495.44 197.407 494.005 197.407C494.005 199.402 494.005 202.412 494.005 204.407H498.485ZM542.386 191.807C542.386 193.627 542.386 195.517 542.386 197.407C538.746 197.407 536.926 197.407 533.321 197.407V200.872H541.651C541.651 202.727 541.651 204.582 541.651 206.437H533.321C533.321 207.872 533.321 209.272 533.321 210.742C536.926 210.742 539.026 210.742 542.701 210.742C542.701 212.562 542.701 214.452 542.701 216.307C536.961 216.307 532.761 216.307 527.091 216.307C527.091 208.117 527.091 199.927 527.091 191.807C532.761 191.807 536.646 191.807 542.386 191.807ZM561.658 204.057C561.693 195.727 567.993 191.527 574.223 191.527C579.298 191.527 584.793 194.292 585.738 200.837C583.603 200.837 581.713 200.837 579.578 200.837C578.703 198.352 576.848 197.232 574.223 197.232C570.548 197.232 568.133 199.997 568.133 204.057C568.133 207.662 570.513 210.812 574.223 210.847C576.883 210.847 579.018 209.517 579.683 206.892C581.783 206.892 583.708 206.892 585.843 206.892C584.933 213.822 579.438 216.552 574.223 216.552C567.993 216.587 561.693 212.387 561.658 204.057ZM609.297 197.407H603.277C603.277 195.517 603.277 193.662 603.277 191.807H621.477C621.477 193.662 621.477 195.517 621.477 197.407H615.492V216.307C613.427 216.307 611.362 216.307 609.297 216.307V197.407ZM656.286 207.627L661.081 215.397V216.307H654.081L649.881 209.097H646.626V216.307C644.526 216.307 642.391 216.307 640.361 216.307C640.361 208.152 640.361 199.997 640.361 191.807C643.896 191.807 647.536 191.807 651.106 191.807C660.731 191.842 662.481 203.427 656.286 207.627ZM651.106 203.462C654.501 203.462 654.676 197.442 651.106 197.407C649.636 197.372 648.096 197.407 646.626 197.407C646.626 199.402 646.626 201.502 646.626 203.462H651.106ZM689.403 211.022C691.223 211.022 693.113 210.042 693.113 208.047V191.807C695.108 191.807 697.208 191.807 699.168 191.807V208.152C699.168 213.542 694.443 216.657 689.403 216.657C684.398 216.657 679.673 213.542 679.673 208.152V191.807C681.633 191.807 683.698 191.807 685.658 191.807V208.047C685.658 210.042 687.583 211.022 689.403 211.022ZM732.092 202.377L741.857 191.737H744.097V216.307C741.962 216.307 739.827 216.307 737.692 216.307V205.387L732.477 210.847H731.777L726.597 205.387V216.307C724.462 216.307 722.327 216.307 720.192 216.307V191.737H722.502L732.092 202.377Z" fill="black"/>
<path d="M147.509 162.243C152.77 159.205 159.499 161.008 162.537 166.27L193.459 219.828C196.497 225.09 194.694 231.818 189.432 234.856C184.17 237.894 177.442 236.091 174.404 230.83L143.482 177.271C140.444 172.009 142.247 165.281 147.509 162.243ZM209.037 52.7261C212.075 47.4644 218.803 45.6614 224.065 48.6993C229.326 51.7373 231.128 58.4656 228.091 63.7273L197.184 117.26C194.146 122.521 187.418 124.324 182.156 121.286C176.894 118.248 175.091 111.52 178.129 106.258L209.037 52.7261Z" fill="#A4A4A4"/>
<path d="M118.363 142.081C124.439 142.081 129.364 147.006 129.364 153.082C129.364 159.158 124.439 164.083 118.363 164.083H56.53C50.4542 164.083 45.5288 159.158 45.5288 153.082C45.5288 147.006 50.4542 142.081 56.53 142.081H118.363ZM249.492 142.081C255.567 142.081 260.493 147.006 260.493 153.082C260.493 159.158 255.567 164.083 249.492 164.083H187.647C181.571 164.083 176.646 159.158 176.646 153.082C176.646 147.007 181.571 142.081 187.647 142.081H249.492Z" fill="#B9B9B9"/>
<path d="M182.15 143.536C187.412 140.499 194.14 142.302 197.178 147.563L228.091 201.106C231.129 206.368 229.326 213.096 224.064 216.134C218.802 219.172 212.075 217.369 209.037 212.107L178.123 158.564C175.086 153.303 176.888 146.574 182.15 143.536ZM108.839 147.563C111.877 142.302 118.606 140.499 123.867 143.536C129.129 146.574 130.932 153.303 127.894 158.564L96.9856 212.101C93.9477 217.362 87.2193 219.165 81.9576 216.127C76.6958 213.089 74.8929 206.361 77.9308 201.099L108.839 147.563ZM116.588 29.9801C121.85 26.9422 128.578 28.7451 131.616 34.0069L162.537 87.5616C165.575 92.8233 163.771 99.5516 158.51 102.59C153.248 105.627 146.52 103.825 143.482 98.5628L112.561 45.0081C109.524 39.7463 111.327 33.018 116.588 29.9801Z" fill="#5F5F5F"/>
<path d="M143.482 166.272C146.52 161.011 153.248 159.208 158.51 162.245C163.771 165.283 165.574 172.012 162.537 177.273L131.616 230.829C128.578 236.091 121.85 237.894 116.588 234.856C111.327 231.818 109.524 225.09 112.561 219.828L143.482 166.272ZM249.493 100.76C255.569 100.76 260.494 105.686 260.495 111.761C260.495 117.837 255.569 122.762 249.493 122.763H187.657C181.581 122.763 176.655 117.837 176.655 111.761C176.656 105.686 181.581 100.76 187.657 100.76H249.493ZM81.9576 48.7086C87.2194 45.6707 93.9477 47.4736 96.9856 52.7354L127.888 106.261C130.926 111.523 129.123 118.251 123.862 121.289C118.6 124.327 111.871 122.524 108.834 117.262L77.9308 63.7366C74.8929 58.4748 76.6958 51.7465 81.9576 48.7086Z" fill="#656565"/>
<path d="M174.4 34.0219C177.438 28.7603 184.166 26.9575 189.427 29.995C194.689 33.0329 196.492 39.7613 193.454 45.0231L162.533 98.5821C159.495 103.844 152.766 105.646 147.505 102.608C142.243 99.5701 140.44 92.8426 143.478 87.5808L174.4 34.0219Z" fill="#B9B9B9"/>
<path d="M118.362 100.758C124.437 100.758 129.363 105.683 129.363 111.759C129.363 117.835 124.437 122.76 118.362 122.76H56.5359C50.4601 122.76 45.5347 117.835 45.5347 111.759C45.5347 105.683 50.4601 100.758 56.5359 100.758H118.362Z" fill="#A4A4A4"/>
</svg>
